<svg xmlns="http://www.w3.org/2000/svg" width="204.66087341308594" height="207.50575256347656" viewBox="14.517414093017578 9.04238510131836 204.66087341308594 207.50575256347656"><title>Neo4j Graph Visualization</title><desc>Created using Neo4j (http://www.neo4j.com/)</desc><g class="layer relationships"><g class="relationship" transform="translate(131.959356982396 180.0481406541629) rotate(281.07235511512886)"><path class="outline" fill="#A5ABB6" stroke="none" d="M 32.5 0.5 L 49.81838608531251 0.5 L 49.81838608531251 -0.5 L 32.5 -0.5 Z M 95.38088608531251 0.5 L 112.69927217062502 0.5 L 112.69927217062502 3.5 L 119.69927217062502 0 L 112.69927217062502 -3.5 L 112.69927217062502 -0.5 L 95.38088608531251 -0.5 Z"/><text text-anchor="middle" pointer-events="none" font-size="8px" fill="#000000" x="72.59963608531251" y="3" font-family="sans-serif">ACTED_IN</text></g><g class="relationship" transform="translate(131.959356982396 180.0481406541629) rotate(240.71000826376576)"><path class="outline" fill="#A5ABB6" stroke="none" d="M 32.5 0.5 L 37.61114346576895 0.5 L 37.61114346576895 -0.5 L 32.5 -0.5 Z M 83.17364346576895 0.5 L 88.2847869315379 0.5 L 88.2847869315379 3.5 L 95.2847869315379 0 L 88.2847869315379 -3.5 L 88.2847869315379 -0.5 L 83.17364346576895 -0.5 Z"/><text text-anchor="middle" pointer-events="none" font-size="8px" fill="#000000" x="60.39239346576895" y="3" transform="rotate(180 60.39239346576895 0)" font-family="sans-serif">ACTED_IN</text></g><g class="relationship" transform="translate(131.959356982396 180.0481406541629) rotate(189.54920652257863)"><path class="outline" fill="#A5ABB6" stroke="none" d="M 32.5 0.5 L 32.53568981776202 0.5 L 32.53568981776202 -0.5 L 32.5 -0.5 Z M 57.64897106776202 0.5 L 57.68466088552404 0.5 L 57.68466088552404 3.5 L 64.68466088552404 0 L 57.68466088552404 -3.5 L 57.68466088552404 -0.5 L 57.64897106776202 -0.5 Z"/><text text-anchor="middle" pointer-events="none" font-size="8px" fill="#000000" x="45.09233044276202" y="3" transform="rotate(180 45.09233044276202 0)" font-family="sans-serif">AC…</text></g><g class="relationship" transform="translate(182.67826455916065 125.11385706576334) rotate(255.2465376383043)"><path class="outline" fill="#A5ABB6" stroke="none" d="M 32.5 0.5 L 32.71338238438533 0.5 L 32.71338238438533 -0.5 L 32.5 -0.5 Z M 57.82666363438533 0.5 L 58.04004601877067 0.5 L 58.04004601877067 3.5 L 65.04004601877067 0 L 58.04004601877067 -3.5 L 58.04004601877067 -0.5 L 57.82666363438533 -0.5 Z"/><text text-anchor="middle" pointer-events="none" font-size="8px" fill="#000000" x="45.27002300938533" y="3" transform="rotate(180 45.27002300938533 0)" font-family="sans-serif">AC…</text></g><g class="relationship" transform="translate(182.67826455916065 125.11385706576334) rotate(204.51759072107131)"><path class="outline" fill="#A5ABB6" stroke="none" d="M 32.5 0.5 L 37.680754793325086 0.5 L 37.680754793325086 -0.5 L 32.5 -0.5 Z M 83.2432547933251 0.5 L 88.42400958665017 0.5 L 88.42400958665017 3.5 L 95.42400958665017 0 L 88.42400958665017 -3.5 L 88.42400958665017 -0.5 L 83.2432547933251 -0.5 Z"/><text text-anchor="middle" pointer-events="none" font-size="8px" fill="#000000" x="60.462004793325086" y="3" transform="rotate(180 60.462004793325086 0)" font-family="sans-serif">ACTED_IN</text></g><g class="relationship" transform="translate(182.67826455916065 125.11385706576334) rotate(523.9420557017717)"><path class="outline" fill="#A5ABB6" stroke="none" d="M 32.5 0.5 L 49.87426202570724 0.5 L 49.87426202570724 -0.5 L 32.5 -0.5 Z M 95.43676202570724 0.5 L 112.81102405141448 0.5 L 112.81102405141448 3.5 L 119.81102405141448 0 L 112.81102405141448 -3.5 L 112.81102405141448 -0.5 L 95.43676202570724 -0.5 Z"/><text text-anchor="middle" pointer-events="none" font-size="8px" fill="#000000" x="72.65551202570724" y="3" transform="rotate(180 72.65551202570724 0)" font-family="sans-serif">ACTED_IN</text></g></g><g class="layer nodes"><g class="node" transform="translate(131.959356982396,180.0481406541629)"><circle class="outline" cx="0" cy="0" r="32.5" fill="#57C7E3" stroke="#23b3d7" stroke-width="2px"/><text text-anchor="middle" pointer-events="none" font-family="sans-serif" dy="2.03125" font-size="32.5" fill="#2A2C34"/><text text-anchor="middle" pointer-events="none" font-family="sans-serif" dy="2.03125" font-size="32.5" fill="#2A2C34"/><text text-anchor="middle" pointer-events="none" x="0" y="0" font-size="10px" fill="#2A2C34" font-family="sans-serif"> Hugo</text><text text-anchor="middle" pointer-events="none" x="0" y="10" font-size="10px" fill="#2A2C34" font-family="sans-serif"> Weaving</text></g><g class="node" transform="translate(182.67826455916065,125.11385706576334)"><circle class="outline" cx="0" cy="0" r="32.5" fill="#57C7E3" stroke="#23b3d7" stroke-width="2px"/><text text-anchor="middle" pointer-events="none" font-family="sans-serif" dy="2.03125" font-size="32.5" fill="#2A2C34"/><text text-anchor="middle" pointer-events="none" font-family="sans-serif" dy="2.03125" font-size="32.5" fill="#2A2C34"/><text text-anchor="middle" pointer-events="none" x="0" y="0" font-size="10px" fill="#2A2C34" font-family="sans-serif"> Keanu</text><text text-anchor="middle" pointer-events="none" x="0" y="10" font-size="10px" fill="#2A2C34" font-family="sans-serif"> Reeves</text></g><g class="node" transform="translate(159.74863168897485,38.04238169351049)"><circle class="outline" cx="0" cy="0" r="25" fill="#F79767" stroke="#f36924" stroke-width="2px"/><text text-anchor="middle" pointer-events="none" font-family="sans-serif" dy="1.5625" font-size="25" fill="#FFFFFF"/><text text-anchor="middle" pointer-events="none" font-family="sans-serif" dy="1.5625" font-size="25" fill="#FFFFFF"/><text text-anchor="middle" pointer-events="none" font-family="sans-serif" dy="1.5625" font-size="25" fill="#FFFFFF"/><text text-anchor="middle" pointer-events="none" x="0" y="-5" font-size="10px" fill="#FFFFFF" font-family="sans-serif"> The</text><text text-anchor="middle" pointer-events="none" x="0" y="5" font-size="10px" fill="#FFFFFF" font-family="sans-serif"> Matrix</text><text text-anchor="middle" pointer-events="none" x="0" y="15" font-size="10px" fill="#FFFFFF" font-family="sans-serif"> Revol…</text></g><g class="node" transform="translate(73.11241699501838,75.14119321364565)"><circle class="outline" cx="0" cy="0" r="25" fill="#F79767" stroke="#f36924" stroke-width="2px"/><text text-anchor="middle" pointer-events="none" font-family="sans-serif" dy="1.5625" font-size="25" fill="#FFFFFF"/><text text-anchor="middle" pointer-events="none" font-family="sans-serif" dy="1.5625" font-size="25" fill="#FFFFFF"/><text text-anchor="middle" pointer-events="none" font-family="sans-serif" dy="1.5625" font-size="25" fill="#FFFFFF"/><text text-anchor="middle" pointer-events="none" x="0" y="-5" font-size="10px" fill="#FFFFFF" font-family="sans-serif"> The</text><text text-anchor="middle" pointer-events="none" x="0" y="5" font-size="10px" fill="#FFFFFF" font-family="sans-serif"> Matrix</text><text text-anchor="middle" pointer-events="none" x="0" y="15" font-size="10px" fill="#FFFFFF" font-family="sans-serif"> Reloa…</text></g><g class="node" transform="translate(43.51741228804748,165.16994127274432)"><circle class="outline" cx="0" cy="0" r="25" fill="#F79767" stroke="#f36924" stroke-width="2px"/><text text-anchor="middle" pointer-events="none" font-family="sans-serif" dy="1.5625" font-size="25" fill="#FFFFFF"/><text text-anchor="middle" pointer-events="none" font-family="sans-serif" dy="1.5625" font-size="25" fill="#FFFFFF"/><text text-anchor="middle" pointer-events="none" x="0" y="0" font-size="10px" fill="#FFFFFF" font-family="sans-serif"> The</text><text text-anchor="middle" pointer-events="none" x="0" y="10" font-size="10px" fill="#FFFFFF" font-family="sans-serif"> Matrix</text></g></g></svg>