<svg xmlns="http://www.w3.org/2000/svg" width="306.99432373046875" height="303.0169982910156" viewBox="-58.99833679199219 -56.83031463623047 306.99432373046875 303.0169982910156"><title>Neo4j Graph Visualization</title><desc>Created using Neo4j (http://www.neo4j.com/)</desc><g class="layer relationships"><g class="relationship" transform="translate(175.29877494394842 180.87888850915252) rotate(227.02649878350212)"><path class="outline" fill="#A5ABB6" stroke="none" d="M 32.5 0.5 L 43.40229871507358 0.5 L 43.40229871507358 -0.5 L 32.5 -0.5 Z M 79.17573621507358 0.5 L 90.07803493014715 0.5 L 90.07803493014715 3.5 L 97.07803493014715 0 L 90.07803493014715 -3.5 L 90.07803493014715 -0.5 L 79.17573621507358 -0.5 Z"/><text text-anchor="middle" pointer-events="none" font-size="8px" fill="#000000" x="61.28901746507358" y="3" transform="rotate(180 61.28901746507358 0)" font-family="sans-serif">WROTE</text></g><g class="relationship" transform="translate(211.4959792795822 78.32365220720928) rotate(533.6757267396883)"><path class="outline" fill="#A5ABB6" stroke="none" d="M 32.5 0.5 L 42.4353184050097 0.5 L 42.4353184050097 -0.5 L 32.5 -0.5 Z M 78.2087559050097 0.5 L 88.1440743100194 0.5 L 88.1440743100194 3.5 L 95.1440743100194 0 L 88.1440743100194 -3.5 L 88.1440743100194 -0.5 L 78.2087559050097 -0.5 Z"/><text text-anchor="middle" pointer-events="none" font-size="8px" fill="#000000" x="60.3220371550097" y="3" transform="rotate(180 60.3220371550097 0)" font-family="sans-serif">WROTE</text></g><g class="relationship" transform="translate(134.4255719213735 -20.330317010649626) rotate(470.7283949012174)"><path class="outline" fill="#A5ABB6" stroke="none" d="M 32.5 0.5 L 37.28497287340485 0.5 L 37.28497287340485 -0.5 L 32.5 -0.5 Z M 82.84747287340485 0.5 L 87.6324457468097 0.5 L 87.6324457468097 3.5 L 94.6324457468097 0 L 87.6324457468097 -3.5 L 87.6324457468097 -0.5 L 82.84747287340485 -0.5 Z"/><text text-anchor="middle" pointer-events="none" font-size="8px" fill="#000000" x="60.06622287340485" y="3" transform="rotate(180 60.06622287340485 0)" font-family="sans-serif">ACTED_IN</text></g><g class="relationship" transform="translate(9.96904909786677 3.3083704300372614) rotate(407.0626628441143)"><path class="outline" fill="#A5ABB6" stroke="none" d="M 32.5 0.5 L 37.07644140522609 0.5 L 37.07644140522609 -0.5 L 32.5 -0.5 Z M 83.96706640522609 0.5 L 88.54350781045218 0.5 L 88.54350781045218 3.5 L 95.54350781045218 0 L 88.54350781045218 -3.5 L 88.54350781045218 -0.5 L 83.96706640522609 -0.5 Z"/><text text-anchor="middle" pointer-events="none" font-size="8px" fill="#000000" x="60.52175390522609" y="3" font-family="sans-serif">DIRECTED</text></g><g class="relationship" transform="translate(-22.49833458411041 125.77898410754354) rotate(343.37124804045106)"><path class="outline" fill="#A5ABB6" stroke="none" d="M 32.5 0.5 L 37.25996864886226 0.5 L 37.25996864886226 -0.5 L 32.5 -0.5 Z M 82.82246864886227 0.5 L 87.58243729772452 0.5 L 87.58243729772452 3.5 L 94.58243729772452 0 L 87.58243729772452 -3.5 L 87.58243729772452 -0.5 L 82.82246864886227 -0.5 Z"/><text text-anchor="middle" pointer-events="none" font-size="8px" fill="#000000" x="60.04121864886226" y="3" font-family="sans-serif">ACTED_IN</text></g><g class="relationship" transform="translate(70.43350208250786 209.68668519300653) rotate(280.38541336666714)"><path class="outline" fill="#A5ABB6" stroke="none" d="M 32.5 0.5 L 37.51675033368783 0.5 L 37.51675033368783 -0.5 L 32.5 -0.5 Z M 83.07925033368784 0.5 L 88.09600066737566 0.5 L 88.09600066737566 3.5 L 95.09600066737566 0 L 88.09600066737566 -3.5 L 88.09600066737566 -0.5 L 83.07925033368784 -0.5 Z"/><text text-anchor="middle" pointer-events="none" font-size="8px" fill="#000000" x="60.29800033368783" y="3" font-family="sans-serif">ACTED_IN</text></g></g><g class="layer nodes"><g class="node" transform="translate(92.08305645096524,91.5581697026919)"><circle class="outline" cx="0" cy="0" r="25" fill="#F79767" stroke="#f36924" stroke-width="2px"/><text text-anchor="middle" pointer-events="none" font-family="sans-serif" dy="1.5625" font-size="25" fill="#FFFFFF"/><text text-anchor="middle" pointer-events="none" font-family="sans-serif" dy="1.5625" font-size="25" fill="#FFFFFF"/><text text-anchor="middle" pointer-events="none" font-family="sans-serif" dy="1.5625" font-size="25" fill="#FFFFFF"/><text text-anchor="middle" pointer-events="none" x="0" y="-5" font-size="10px" fill="#FFFFFF" font-family="sans-serif"> Captain</text><text text-anchor="middle" pointer-events="none" x="0" y="5" font-size="10px" fill="#FFFFFF" font-family="sans-serif"> America:</text><text text-anchor="middle" pointer-events="none" x="0" y="15" font-size="10px" fill="#FFFFFF" font-family="sans-serif"> The Fi…</text></g><g class="node" transform="translate(175.29877494394842,180.87888850915252)"><circle class="outline" cx="0" cy="0" r="32.5" fill="#57C7E3" stroke="#23b3d7" stroke-width="2px"/><text text-anchor="middle" pointer-events="none" font-family="sans-serif" dy="2.03125" font-size="32.5" fill="#2A2C34"/><text text-anchor="middle" pointer-events="none" font-family="sans-serif" dy="2.03125" font-size="32.5" fill="#2A2C34"/><text text-anchor="middle" pointer-events="none" x="0" y="0" font-size="10px" fill="#2A2C34" font-family="sans-serif"> Stephen</text><text text-anchor="middle" pointer-events="none" x="0" y="10" font-size="10px" fill="#2A2C34" font-family="sans-serif"> McFeely</text></g><g class="node" transform="translate(211.4959792795822,78.32365220720928)"><circle class="outline" cx="0" cy="0" r="32.5" fill="#57C7E3" stroke="#23b3d7" stroke-width="2px"/><text text-anchor="middle" pointer-events="none" font-family="sans-serif" dy="2.03125" font-size="32.5" fill="#2A2C34"/><text text-anchor="middle" pointer-events="none" font-family="sans-serif" dy="2.03125" font-size="32.5" fill="#2A2C34"/><text text-anchor="middle" pointer-events="none" x="0" y="0" font-size="10px" fill="#2A2C34" font-family="sans-serif"> Christopher</text><text text-anchor="middle" pointer-events="none" x="0" y="10" font-size="10px" fill="#2A2C34" font-family="sans-serif"> Markus</text></g><g class="node" transform="translate(134.4255719213735,-20.330317010649626)"><circle class="outline" cx="0" cy="0" r="32.5" fill="#57C7E3" stroke="#23b3d7" stroke-width="2px"/><text text-anchor="middle" pointer-events="none" font-family="sans-serif" dy="2.03125" font-size="32.5" fill="#2A2C34"/><text text-anchor="middle" pointer-events="none" x="0" y="5" font-size="10px" fill="#2A2C34" font-family="sans-serif"> Chris Evans</text></g><g class="node" transform="translate(9.96904909786677,3.3083704300372614)"><circle class="outline" cx="0" cy="0" r="32.5" fill="#57C7E3" stroke="#23b3d7" stroke-width="2px"/><text text-anchor="middle" pointer-events="none" font-family="sans-serif" dy="2.03125" font-size="32.5" fill="#2A2C34"/><text text-anchor="middle" pointer-events="none" x="0" y="5" font-size="10px" fill="#2A2C34" font-family="sans-serif"> Joe Johnston</text></g><g class="node" transform="translate(-22.49833458411041,125.77898410754354)"><circle class="outline" cx="0" cy="0" r="32.5" fill="#57C7E3" stroke="#23b3d7" stroke-width="2px"/><text text-anchor="middle" pointer-events="none" font-family="sans-serif" dy="2.03125" font-size="32.5" fill="#2A2C34"/><text text-anchor="middle" pointer-events="none" font-family="sans-serif" dy="2.03125" font-size="32.5" fill="#2A2C34"/><text text-anchor="middle" pointer-events="none" x="0" y="0" font-size="10px" fill="#2A2C34" font-family="sans-serif"> Hugo</text><text text-anchor="middle" pointer-events="none" x="0" y="10" font-size="10px" fill="#2A2C34" font-family="sans-serif"> Weaving</text></g><g class="node" transform="translate(70.43350208250786,209.68668519300653)"><circle class="outline" cx="0" cy="0" r="32.5" fill="#57C7E3" stroke="#23b3d7" stroke-width="2px"/><text text-anchor="middle" pointer-events="none" font-family="sans-serif" dy="2.03125" font-size="32.5" fill="#2A2C34"/><text text-anchor="middle" pointer-events="none" font-family="sans-serif" dy="2.03125" font-size="32.5" fill="#2A2C34"/><text text-anchor="middle" pointer-events="none" x="0" y="0" font-size="10px" fill="#2A2C34" font-family="sans-serif"> Sebastian</text><text text-anchor="middle" pointer-events="none" x="0" y="10" font-size="10px" fill="#2A2C34" font-family="sans-serif"> Stan</text></g></g></svg>