<svg xmlns="http://www.w3.org/2000/svg" width="421.8895263671875" height="443.4624938964844" viewBox="-140.7980499267578 -122.78829193115234 421.8895263671875 443.4624938964844"><title>Neo4j Graph Visualization</title><desc>Created using Neo4j (http://www.neo4j.com/)</desc><g class="layer relationships"><g class="relationship" transform="translate(146.86408526188623 -30.7400035649947) rotate(488.0024352382227)"><path class="outline" fill="#A5ABB6" stroke="none" d="M 25 0.5 L 38.211923564154446 0.5 L 38.211923564154446 -0.5 L 25 -0.5 Z M 83.77442356415445 0.5 L 96.98634712830889 0.5 L 96.98634712830889 3.5 L 103.98634712830889 0 L 96.98634712830889 -3.5 L 96.98634712830889 -0.5 L 83.77442356415445 -0.5 Z"/><text text-anchor="middle" pointer-events="none" font-size="8px" fill="#000000" x="60.993173564154446" y="3" transform="rotate(180 60.993173564154446 0)" font-family="sans-serif">ACTED_IN</text></g><g class="relationship" transform="translate(-29.274207292177014 24.63094709693318) rotate(225.5850408737096)"><path class="outline" fill="#A5ABB6" stroke="none" d="M 25 0.5 L 32.67699999486426 0.5 L 32.67699999486426 -0.5 L 25 -0.5 Z M 78.23949999486426 0.5 L 85.91649998972852 0.5 L 85.91649998972852 3.5 L 92.91649998972852 0 L 85.91649998972852 -3.5 L 85.91649998972852 -0.5 L 78.23949999486426 -0.5 Z"/><text text-anchor="middle" pointer-events="none" font-size="8px" fill="#000000" x="55.45824999486426" y="3" transform="rotate(180 55.45824999486426 0)" font-family="sans-serif">ACTED_IN</text></g><g class="relationship" transform="translate(-29.274207292177014 24.63094709693318) rotate(284.6351611408203)"><path class="outline" fill="#A5ABB6" stroke="none" d="M 25 0.5 L 34.91388718221326 0.5 L 34.91388718221326 -0.5 L 25 -0.5 Z M 80.47638718221326 0.5 L 90.39027436442652 0.5 L 90.39027436442652 3.5 L 97.39027436442652 0 L 90.39027436442652 -3.5 L 90.39027436442652 -0.5 L 80.47638718221326 -0.5 Z"/><text text-anchor="middle" pointer-events="none" font-size="8px" fill="#000000" x="57.69513718221326" y="3" font-family="sans-serif">ACTED_IN</text></g><g class="relationship" transform="translate(-29.274207292177014 24.63094709693318) rotate(445.8681321927529)"><path class="outline" fill="#A5ABB6" stroke="none" d="M 25 0.5 L 42.80828038801562 0.5 L 42.80828038801562 -0.5 L 25 -0.5 Z M 88.37078038801562 0.5 L 106.17906077603124 0.5 L 106.17906077603124 3.5 L 113.17906077603124 0 L 106.17906077603124 -3.5 L 106.17906077603124 -0.5 L 88.37078038801562 -0.5 Z"/><text text-anchor="middle" pointer-events="none" font-size="8px" fill="#000000" x="65.58953038801562" y="3" font-family="sans-serif">ACTED_IN</text></g><g class="relationship" transform="translate(-29.274207292177014 24.63094709693318) rotate(419.72959523246914)"><path class="outline" fill="#A5ABB6" stroke="none" d="M 25 0.5 L 27.378451348531456 0.5 L 27.378451348531456 -0.5 L 25 -0.5 Z M 72.94095134853146 0.5 L 75.31940269706291 0.5 L 75.31940269706291 3.5 L 82.31940269706291 0 L 75.31940269706291 -3.5 L 75.31940269706291 -0.5 L 72.94095134853146 -0.5 Z"/><text text-anchor="middle" pointer-events="none" font-size="8px" fill="#000000" x="50.159701348531456" y="3" font-family="sans-serif">ACTED_IN</text></g><g class="relationship" transform="translate(-29.274207292177014 24.63094709693318) rotate(385.5647531998371)"><path class="outline" fill="#A5ABB6" stroke="none" d="M 25 0.5 L 27.328241573354447 0.5 L 27.328241573354447 -0.5 L 25 -0.5 Z M 72.89074157335445 0.5 L 75.2189831467089 0.5 L 75.2189831467089 3.5 L 82.2189831467089 0 L 75.2189831467089 -3.5 L 75.2189831467089 -0.5 L 72.89074157335445 -0.5 Z"/><text text-anchor="middle" pointer-events="none" font-size="8px" fill="#000000" x="50.10949157335445" y="3" font-family="sans-serif">ACTED_IN</text></g><g class="relationship" transform="translate(51.72901610492158 212.31551498376948) rotate(215.06322415544446)"><path class="outline" fill="#A5ABB6" stroke="none" d="M 25 0.5 L 27.343176499924333 0.5 L 27.343176499924333 -0.5 L 25 -0.5 Z M 52.45645774992433 0.5 L 54.799634249848665 0.5 L 54.799634249848665 3.5 L 61.799634249848665 0 L 54.799634249848665 -3.5 L 54.799634249848665 -0.5 L 52.45645774992433 -0.5 Z"/><text text-anchor="middle" pointer-events="none" font-size="8px" fill="#000000" x="39.89981712492433" y="3" transform="rotate(180 39.89981712492433 0)" font-family="sans-serif">AC…</text></g><g class="relationship" transform="translate(51.72901610492158 212.31551498376948) rotate(254.18665411243956)"><path class="outline" fill="#A5ABB6" stroke="none" d="M 25 0.5 L 25.310437603038856 0.5 L 25.310437603038856 -0.5 L 25 -0.5 Z M 66.42371885303885 0.5 L 66.73415645607771 0.5 L 66.73415645607771 3.5 L 73.73415645607771 0 L 66.73415645607771 -3.5 L 66.73415645607771 -0.5 L 66.42371885303885 -0.5 Z"/><text text-anchor="middle" pointer-events="none" font-size="8px" fill="#000000" x="45.86707822803886" y="3" transform="rotate(180 45.86707822803886 0)" font-family="sans-serif">ACTED…</text></g><g class="relationship" transform="translate(51.72901610492158 212.31551498376948) rotate(276.3425554051022)"><path class="outline" fill="#A5ABB6" stroke="none" d="M 25 0.5 L 44.86233987817282 0.5 L 44.86233987817282 -0.5 L 25 -0.5 Z M 90.42483987817282 0.5 L 110.28717975634564 0.5 L 110.28717975634564 3.5 L 117.28717975634564 0 L 110.28717975634564 -3.5 L 110.28717975634564 -0.5 L 90.42483987817282 -0.5 Z"/><text text-anchor="middle" pointer-events="none" font-size="8px" fill="#000000" x="67.64358987817282" y="3" font-family="sans-serif">ACTED_IN</text></g><g class="relationship" transform="translate(-72.90543290898167 86.80183565395686) rotate(414.6874725356618)"><path class="outline" fill="#A5ABB6" stroke="none" d="M 25 0.5 L 25.184963340311953 0.5 L 25.184963340311953 -0.5 L 25 -0.5 Z M 60.52090084031195 0.5 L 60.705864180623905 0.5 L 60.705864180623905 3.5 L 67.7058641806239 0 L 60.705864180623905 -3.5 L 60.705864180623905 -0.5 L 60.52090084031195 -0.5 Z"/><text text-anchor="middle" pointer-events="none" font-size="8px" fill="#000000" x="42.85293209031195" y="3" font-family="sans-serif">ACTE…</text></g><g class="relationship" transform="translate(-72.90543290898167 86.80183565395686) rotate(377.34113126748537)"><path class="outline" fill="#A5ABB6" stroke="none" d="M 25 0.5 L 27.13463247722617 0.5 L 27.13463247722617 -0.5 L 25 -0.5 Z M 68.24791372722618 0.5 L 70.38254620445234 0.5 L 70.38254620445234 3.5 L 77.38254620445234 0 L 70.38254620445234 -3.5 L 70.38254620445234 -0.5 L 68.24791372722618 -0.5 Z"/><text text-anchor="middle" pointer-events="none" font-size="8px" fill="#000000" x="47.69127310222617" y="3" font-family="sans-serif">ACTED…</text></g><g class="relationship" transform="translate(-72.90543290898167 86.80183565395686) rotate(353.53572780957006)"><path class="outline" fill="#A5ABB6" stroke="none" d="M 25 0.5 L 44.344406782110866 0.5 L 44.344406782110866 -0.5 L 25 -0.5 Z M 89.90690678211087 0.5 L 109.25131356422173 0.5 L 109.25131356422173 3.5 L 116.25131356422173 0 L 109.25131356422173 -3.5 L 109.25131356422173 -0.5 L 89.90690678211087 -0.5 Z"/><text text-anchor="middle" pointer-events="none" font-size="8px" fill="#000000" x="67.12565678211087" y="3" font-family="sans-serif">ACTED_IN</text></g><g class="relationship" transform="translate(124.49817268852154 165.811824774818) rotate(402.3840461053313)"><path class="outline" fill="#A5ABB6" stroke="none" d="M 25 0.5 L 36.37627464460118 0.5 L 36.37627464460118 -0.5 L 25 -0.5 Z M 81.93877464460118 0.5 L 93.31504928920236 0.5 L 93.31504928920236 3.5 L 100.31504928920236 0 L 93.31504928920236 -3.5 L 93.31504928920236 -0.5 L 81.93877464460118 -0.5 Z"/><text text-anchor="middle" pointer-events="none" font-size="8px" fill="#000000" x="59.15752464460118" y="3" font-family="sans-serif">ACTED_IN</text></g><g class="relationship" transform="translate(124.49817268852154 165.811824774818) rotate(323.92523048379417)"><path class="outline" fill="#A5ABB6" stroke="none" d="M 25 0.5 L 37.30753913619505 0.5 L 37.30753913619505 -0.5 L 25 -0.5 Z M 82.87003913619505 0.5 L 95.1775782723901 0.5 L 95.1775782723901 3.5 L 102.1775782723901 0 L 95.1775782723901 -3.5 L 95.1775782723901 -0.5 L 82.87003913619505 -0.5 Z"/><text text-anchor="middle" pointer-events="none" font-size="8px" fill="#000000" x="60.08878913619505" y="3" font-family="sans-serif">ACTED_IN</text></g><g class="relationship" transform="translate(124.49817268852154 165.811824774818) rotate(446.46922220369845)"><path class="outline" fill="#A5ABB6" stroke="none" d="M 25 0.5 L 36.76960838239483 0.5 L 36.76960838239483 -0.5 L 25 -0.5 Z M 82.33210838239484 0.5 L 94.10171676478966 0.5 L 94.10171676478966 3.5 L 101.10171676478966 0 L 94.10171676478966 -3.5 L 94.10171676478966 -0.5 L 82.33210838239484 -0.5 Z"/><text text-anchor="middle" pointer-events="none" font-size="8px" fill="#000000" x="59.55085838239483" y="3" font-family="sans-serif">ACTED_IN</text></g><g class="relationship" transform="translate(124.49817268852154 165.811824774818) rotate(362.07999460136796)"><path class="outline" fill="#A5ABB6" stroke="none" d="M 25 0.5 L 37.55747391614964 0.5 L 37.55747391614964 -0.5 L 25 -0.5 Z M 83.11997391614963 0.5 L 95.67744783229928 0.5 L 95.67744783229928 3.5 L 102.67744783229928 0 L 95.67744783229928 -3.5 L 95.67744783229928 -0.5 L 83.11997391614963 -0.5 Z"/><text text-anchor="middle" pointer-events="none" font-size="8px" fill="#000000" x="60.33872391614964" y="3" font-family="sans-serif">ACTED_IN</text></g><g class="relationship" transform="translate(124.49817268852154 165.811824774818) rotate(181.3387495403606)"><path class="outline" fill="#A5ABB6" stroke="none" d="M 25 0.5 L 45.646520391942445 0.5 L 45.646520391942445 -0.5 L 25 -0.5 Z M 91.20902039194245 0.5 L 111.85554078388489 0.5 L 111.85554078388489 3.5 L 118.85554078388489 0 L 111.85554078388489 -3.5 L 111.85554078388489 -0.5 L 91.20902039194245 -0.5 Z"/><text text-anchor="middle" pointer-events="none" font-size="8px" fill="#000000" x="68.42777039194245" y="3" transform="rotate(180 68.42777039194245 0)" font-family="sans-serif">ACTED_IN</text></g><g class="relationship" transform="translate(124.49817268852154 165.811824774818) rotate(205.9439033189343)"><path class="outline" fill="#A5ABB6" stroke="none" d="M 25 0.5 L 29.141412885087362 0.5 L 29.141412885087362 -0.5 L 25 -0.5 Z M 74.70391288508736 0.5 L 78.84532577017472 0.5 L 78.84532577017472 3.5 L 85.84532577017472 0 L 78.84532577017472 -3.5 L 78.84532577017472 -0.5 L 74.70391288508736 -0.5 Z"/><text text-anchor="middle" pointer-events="none" font-size="8px" fill="#000000" x="51.92266288508736" y="3" transform="rotate(180 51.92266288508736 0)" font-family="sans-serif">ACTED_IN</text></g><g class="relationship" transform="translate(124.49817268852154 165.811824774818) rotate(238.99064067497773)"><path class="outline" fill="#A5ABB6" stroke="none" d="M 25 0.5 L 29.088275267710088 0.5 L 29.088275267710088 -0.5 L 25 -0.5 Z M 74.65077526771009 0.5 L 78.73905053542018 0.5 L 78.73905053542018 3.5 L 85.73905053542018 0 L 78.73905053542018 -3.5 L 78.73905053542018 -0.5 L 74.65077526771009 -0.5 Z"/><text text-anchor="middle" pointer-events="none" font-size="8px" fill="#000000" x="51.86952526771009" y="3" transform="rotate(180 51.86952526771009 0)" font-family="sans-serif">ACTED_IN</text></g></g><g class="layer nodes"><g class="node" transform="translate(67.44784045470794,70.89924970966749)"><circle class="outline" cx="0" cy="0" r="25" fill="#F79767" stroke="#f36924" stroke-width="2px"/><text text-anchor="middle" pointer-events="none" font-family="sans-serif" dy="1.5625" font-size="25" fill="#FFFFFF"/><text text-anchor="middle" pointer-events="none" font-family="sans-serif" dy="1.5625" font-size="25" fill="#FFFFFF"/><text text-anchor="middle" pointer-events="none" x="0" y="0" font-size="10px" fill="#FFFFFF" font-family="sans-serif"> The</text><text text-anchor="middle" pointer-events="none" x="0" y="10" font-size="10px" fill="#FFFFFF" font-family="sans-serif"> Matrix</text></g><g class="node" transform="translate(146.86408526188623,-30.7400035649947)"><circle class="outline" cx="0" cy="0" r="25" fill="#57C7E3" stroke="#23b3d7" stroke-width="2px"/><text text-anchor="middle" pointer-events="none" font-family="sans-serif" dy="1.5625" font-size="25" fill="#2A2C34"/><text text-anchor="middle" pointer-events="none" font-family="sans-serif" dy="1.5625" font-size="25" fill="#2A2C34"/><text text-anchor="middle" pointer-events="none" x="0" y="0" font-size="10px" fill="#2A2C34" font-family="sans-serif"> Emil</text><text text-anchor="middle" pointer-events="none" x="0" y="10" font-size="10px" fill="#2A2C34" font-family="sans-serif"> Eifrem</text></g><g class="node" transform="translate(-29.274207292177014,24.63094709693318)"><circle class="outline" cx="0" cy="0" r="25" fill="#57C7E3" stroke="#23b3d7" stroke-width="2px"/><text text-anchor="middle" pointer-events="none" font-family="sans-serif" dy="1.5625" font-size="25" fill="#2A2C34"/><text text-anchor="middle" pointer-events="none" font-family="sans-serif" dy="1.5625" font-size="25" fill="#2A2C34"/><text text-anchor="middle" pointer-events="none" x="0" y="0" font-size="10px" fill="#2A2C34" font-family="sans-serif"> Hugo</text><text text-anchor="middle" pointer-events="none" x="0" y="10" font-size="10px" fill="#2A2C34" font-family="sans-serif"> Weaving</text></g><g class="node" transform="translate(51.72901610492158,212.31551498376948)"><circle class="outline" cx="0" cy="0" r="25" fill="#57C7E3" stroke="#23b3d7" stroke-width="2px"/><text text-anchor="middle" pointer-events="none" font-family="sans-serif" dy="1.5625" font-size="25" fill="#2A2C34"/><text text-anchor="middle" pointer-events="none" font-family="sans-serif" dy="1.5625" font-size="25" fill="#2A2C34"/><text text-anchor="middle" pointer-events="none" x="0" y="0" font-size="10px" fill="#2A2C34" font-family="sans-serif"> Laurence</text><text text-anchor="middle" pointer-events="none" x="0" y="10" font-size="10px" fill="#2A2C34" font-family="sans-serif"> Fishbur…</text></g><g class="node" transform="translate(-72.90543290898167,86.80183565395686)"><circle class="outline" cx="0" cy="0" r="25" fill="#57C7E3" stroke="#23b3d7" stroke-width="2px"/><text text-anchor="middle" pointer-events="none" font-family="sans-serif" dy="1.5625" font-size="25" fill="#2A2C34"/><text text-anchor="middle" pointer-events="none" x="0" y="5" font-size="10px" fill="#2A2C34" font-family="sans-serif"> Carrie-A…</text></g><g class="node" transform="translate(124.49817268852154,165.811824774818)"><circle class="outline" cx="0" cy="0" r="25" fill="#57C7E3" stroke="#23b3d7" stroke-width="2px"/><text text-anchor="middle" pointer-events="none" font-family="sans-serif" dy="1.5625" font-size="25" fill="#2A2C34"/><text text-anchor="middle" pointer-events="none" font-family="sans-serif" dy="1.5625" font-size="25" fill="#2A2C34"/><text text-anchor="middle" pointer-events="none" x="0" y="0" font-size="10px" fill="#2A2C34" font-family="sans-serif"> Keanu</text><text text-anchor="middle" pointer-events="none" x="0" y="10" font-size="10px" fill="#2A2C34" font-family="sans-serif"> Reeves</text></g><g class="node" transform="translate(24.823527122736756,117.31799757556158)"><circle class="outline" cx="0" cy="0" r="25" fill="#F79767" stroke="#f36924" stroke-width="2px"/><text text-anchor="middle" pointer-events="none" font-family="sans-serif" dy="1.5625" font-size="25" fill="#FFFFFF"/><text text-anchor="middle" pointer-events="none" font-family="sans-serif" dy="1.5625" font-size="25" fill="#FFFFFF"/><text text-anchor="middle" pointer-events="none" font-family="sans-serif" dy="1.5625" font-size="25" fill="#FFFFFF"/><text text-anchor="middle" pointer-events="none" x="0" y="-5" font-size="10px" fill="#FFFFFF" font-family="sans-serif"> The</text><text text-anchor="middle" pointer-events="none" x="0" y="5" font-size="10px" fill="#FFFFFF" font-family="sans-serif"> Matrix</text><text text-anchor="middle" pointer-events="none" x="0" y="15" font-size="10px" fill="#FFFFFF" font-family="sans-serif"> Reloa…</text></g><g class="node" transform="translate(-19.318100867350957,162.45086141196848)"><circle class="outline" cx="0" cy="0" r="25" fill="#F79767" stroke="#f36924" stroke-width="2px"/><text text-anchor="middle" pointer-events="none" font-family="sans-serif" dy="1.5625" font-size="25" fill="#FFFFFF"/><text text-anchor="middle" pointer-events="none" font-family="sans-serif" dy="1.5625" font-size="25" fill="#FFFFFF"/><text text-anchor="middle" pointer-events="none" font-family="sans-serif" dy="1.5625" font-size="25" fill="#FFFFFF"/><text text-anchor="middle" pointer-events="none" x="0" y="-5" font-size="10px" fill="#FFFFFF" font-family="sans-serif"> The</text><text text-anchor="middle" pointer-events="none" x="0" y="5" font-size="10px" fill="#FFFFFF" font-family="sans-serif"> Matrix</text><text text-anchor="middle" pointer-events="none" x="0" y="15" font-size="10px" fill="#FFFFFF" font-family="sans-serif"> Revol…</text></g><g class="node" transform="translate(252.09149734663714,170.44584977024172)"><circle class="outline" cx="0" cy="0" r="25" fill="#F79767" stroke="#f36924" stroke-width="2px"/><text text-anchor="middle" pointer-events="none" font-family="sans-serif" dy="1.5625" font-size="25" fill="#FFFFFF"/><text text-anchor="middle" pointer-events="none" font-family="sans-serif" dy="1.5625" font-size="25" fill="#FFFFFF"/><text text-anchor="middle" pointer-events="none" font-family="sans-serif" dy="1.5625" font-size="25" fill="#FFFFFF"/><text text-anchor="middle" pointer-events="none" x="0" y="-5" font-size="10px" fill="#FFFFFF" font-family="sans-serif"> The</text><text text-anchor="middle" pointer-events="none" x="0" y="5" font-size="10px" fill="#FFFFFF" font-family="sans-serif"> Devil's</text><text text-anchor="middle" pointer-events="none" x="0" y="15" font-size="10px" fill="#FFFFFF" font-family="sans-serif"> Advoc…</text></g><g class="node" transform="translate(217.0612654303469,250.28629097865652)"><circle class="outline" cx="0" cy="0" r="25" fill="#F79767" stroke="#f36924" stroke-width="2px"/><text text-anchor="middle" pointer-events="none" font-family="sans-serif" dy="1.5625" font-size="25" fill="#FFFFFF"/><text text-anchor="middle" pointer-events="none" font-family="sans-serif" dy="1.5625" font-size="25" fill="#FFFFFF"/><text text-anchor="middle" pointer-events="none" x="0" y="0" font-size="10px" fill="#FFFFFF" font-family="sans-serif"> The</text><text text-anchor="middle" pointer-events="none" x="0" y="10" font-size="10px" fill="#FFFFFF" font-family="sans-serif"> Replac…</text></g><g class="node" transform="translate(227.2893563582372,90.92451627058153)"><circle class="outline" cx="0" cy="0" r="25" fill="#F79767" stroke="#f36924" stroke-width="2px"/><text text-anchor="middle" pointer-events="none" font-family="sans-serif" dy="1.5625" font-size="25" fill="#FFFFFF"/><text text-anchor="middle" pointer-events="none" font-family="sans-serif" dy="1.5625" font-size="25" fill="#FFFFFF"/><text text-anchor="middle" pointer-events="none" x="0" y="0" font-size="10px" fill="#FFFFFF" font-family="sans-serif"> Johnny</text><text text-anchor="middle" pointer-events="none" x="0" y="10" font-size="10px" fill="#FFFFFF" font-family="sans-serif"> Mnemo…</text></g><g class="node" transform="translate(-111.7980527691302,-59.59562767328766)"><circle class="outline" cx="0" cy="0" r="25" fill="#F79767" stroke="#f36924" stroke-width="2px"/><text text-anchor="middle" pointer-events="none" font-family="sans-serif" dy="1.5625" font-size="25" fill="#FFFFFF"/><text text-anchor="middle" pointer-events="none" font-family="sans-serif" dy="1.5625" font-size="25" fill="#FFFFFF"/><text text-anchor="middle" pointer-events="none" x="0" y="0" font-size="10px" fill="#FFFFFF" font-family="sans-serif"> Cloud</text><text text-anchor="middle" pointer-events="none" x="0" y="10" font-size="10px" fill="#FFFFFF" font-family="sans-serif"> Atlas</text></g><g class="node" transform="translate(1.6493076820209271,-93.78828901207132)"><circle class="outline" cx="0" cy="0" r="25" fill="#F79767" stroke="#f36924" stroke-width="2px"/><text text-anchor="middle" pointer-events="none" font-family="sans-serif" dy="1.5625" font-size="25" fill="#FFFFFF"/><text text-anchor="middle" pointer-events="none" font-family="sans-serif" dy="1.5625" font-size="25" fill="#FFFFFF"/><text text-anchor="middle" pointer-events="none" x="0" y="0" font-size="10px" fill="#FFFFFF" font-family="sans-serif"> V for</text><text text-anchor="middle" pointer-events="none" x="0" y="10" font-size="10px" fill="#FFFFFF" font-family="sans-serif"> Vendetta</text></g><g class="node" transform="translate(132.26410941856992,291.6741829194679)"><circle class="outline" cx="0" cy="0" r="25" fill="#F79767" stroke="#f36924" stroke-width="2px"/><text text-anchor="middle" pointer-events="none" font-family="sans-serif" dy="1.5625" font-size="25" fill="#FFFFFF"/><text text-anchor="middle" pointer-events="none" x="0" y="5" font-size="10px" fill="#FFFFFF" font-family="sans-serif"> Somethi…</text></g></g></svg>