<svg xmlns="http://www.w3.org/2000/svg" width="896.1781005859375" height="360.617919921875" viewBox="-359.54254150390625 -79.89662170410156 896.1781005859375 360.617919921875"><title>Neo4j Graph Visualization</title><desc>Created using Neo4j (http://www.neo4j.com/)</desc><g class="layer relationships"><g class="relationship" transform="translate(58.684492548785684 92.72707160353633) rotate(313.5908311456136)"><path class="outline" fill="#A5ABB6" stroke="none" d="M 25 0.5 L 44.472708933397044 0.5 L 44.472708933397044 -0.5 L 25 -0.5 Z M 90.03520893339704 0.5 L 109.50791786679409 0.5 L 109.50791786679409 3.5 L 116.50791786679409 0 L 109.50791786679409 -3.5 L 109.50791786679409 -0.5 L 90.03520893339704 -0.5 Z"/><text text-anchor="middle" pointer-events="none" font-size="8px" fill="#000000" x="67.25395893339704" y="3" font-family="sans-serif">ACTED_IN</text></g><g class="relationship" transform="translate(181.6906063323412 93.99205967769075) rotate(256.22562102116524)"><path class="outline" fill="#A5ABB6" stroke="none" d="M 25 0.5 L 27.133232988607517 0.5 L 27.133232988607517 -0.5 L 25 -0.5 Z M 72.69573298860752 0.5 L 74.82896597721503 0.5 L 74.82896597721503 3.5 L 81.82896597721503 0 L 74.82896597721503 -3.5 L 74.82896597721503 -0.5 L 72.69573298860752 -0.5 Z"/><text text-anchor="middle" pointer-events="none" font-size="8px" fill="#000000" x="49.91448298860752" y="3" transform="rotate(180 49.91448298860752 0)" font-family="sans-serif">ACTED_IN</text></g><g class="relationship" transform="translate(60.56550000236281 -50.8966179769381) rotate(383.26045709446566)"><path class="outline" fill="#A5ABB6" stroke="none" d="M 25 0.5 L 25.796263656818212 0.5 L 25.796263656818212 -0.5 L 25 -0.5 Z M 71.35876365681821 0.5 L 72.15502731363642 0.5 L 72.15502731363642 3.5 L 79.15502731363642 0 L 72.15502731363642 -3.5 L 72.15502731363642 -0.5 L 71.35876365681821 -0.5 Z"/><text text-anchor="middle" pointer-events="none" font-size="8px" fill="#000000" x="48.57751365681821" y="3" font-family="sans-serif">ACTED_IN</text></g><g class="relationship" transform="translate(348.0263933494068 34.312957381865736) rotate(430.1125476770251)"><path class="outline" fill="#A5ABB6" stroke="none" d="M 25 0.5 L 29.497120626407977 0.5 L 29.497120626407977 -0.5 L 25 -0.5 Z M 75.05962062640798 0.5 L 79.55674125281595 0.5 L 79.55674125281595 3.5 L 86.55674125281595 0 L 79.55674125281595 -3.5 L 79.55674125281595 -0.5 L 75.05962062640798 -0.5 Z"/><text text-anchor="middle" pointer-events="none" font-size="8px" fill="#000000" x="52.27837062640798" y="3" font-family="sans-serif">ACTED_IN</text></g><g class="relationship" transform="translate(286.26227715255834 201.0949288923597) rotate(328.1777429059158)"><path class="outline" fill="#A5ABB6" stroke="none" d="M 25 0.5 L 32.39486713697489 0.5 L 32.39486713697489 -0.5 L 25 -0.5 Z M 77.95736713697488 0.5 L 85.35223427394978 0.5 L 85.35223427394978 3.5 L 92.35223427394978 0 L 85.35223427394978 -3.5 L 85.35223427394978 -0.5 L 77.95736713697488 -0.5 Z"/><text text-anchor="middle" pointer-events="none" font-size="8px" fill="#000000" x="55.17611713697489" y="3" font-family="sans-serif">ACTED_IN</text></g><g class="relationship" transform="translate(507.6355473829276 77.95835284876715) rotate(513.2738667427618)"><path class="outline" fill="#A5ABB6" stroke="none" d="M 25 0.5 L 41.82503986358023 0.5 L 41.82503986358023 -0.5 L 25 -0.5 Z M 87.38753986358023 0.5 L 104.21257972716046 0.5 L 104.21257972716046 3.5 L 111.21257972716046 0 L 104.21257972716046 -3.5 L 104.21257972716046 -0.5 L 87.38753986358023 -0.5 Z"/><text text-anchor="middle" pointer-events="none" font-size="8px" fill="#000000" x="64.60628986358023" y="3" transform="rotate(180 64.60628986358023 0)" font-family="sans-serif">ACTED_IN</text></g><g class="relationship" transform="translate(360.2549152846878 251.72128063974927) rotate(282.87733306877107)"><path class="outline" fill="#A5ABB6" stroke="none" d="M 25 0.5 L 31.42229186196927 0.5 L 31.42229186196927 -0.5 L 25 -0.5 Z M 76.98479186196927 0.5 L 83.40708372393854 0.5 L 83.40708372393854 3.5 L 90.40708372393854 0 L 83.40708372393854 -3.5 L 83.40708372393854 -0.5 L 76.98479186196927 -0.5 Z"/><text text-anchor="middle" pointer-events="none" font-size="8px" fill="#000000" x="54.20354186196927" y="3" font-family="sans-serif">ACTED_IN</text></g><g class="relationship" transform="translate(-208.26706210382918 92.21502346595071) rotate(363.0694243039296)"><path class="outline" fill="#A5ABB6" stroke="none" d="M 25 0.5 L 27.840783811482034 0.5 L 27.840783811482034 -0.5 L 25 -0.5 Z M 63.176721311482034 0.5 L 66.01750512296407 0.5 L 66.01750512296407 3.5 L 73.01750512296407 0 L 66.01750512296407 -3.5 L 66.01750512296407 -0.5 L 63.176721311482034 -0.5 Z"/><text text-anchor="middle" pointer-events="none" font-size="8px" fill="#000000" x="45.508752561482034" y="3" font-family="sans-serif">ACTE…</text></g><g class="relationship" transform="translate(-208.26706210382918 92.21502346595071) rotate(329.0540951622752)"><path class="outline" fill="#A5ABB6" stroke="none" d="M 25 0.5 L 39.83147532457295 0.5 L 39.83147532457295 -0.5 L 25 -0.5 Z M 85.39397532457295 0.5 L 100.2254506491459 0.5 L 100.2254506491459 3.5 L 107.2254506491459 0 L 100.2254506491459 -3.5 L 100.2254506491459 -0.5 L 85.39397532457295 -0.5 Z"/><text text-anchor="middle" pointer-events="none" font-size="8px" fill="#000000" x="62.61272532457295" y="3" font-family="sans-serif">ACTED_IN</text></g><g class="relationship selected" transform="translate(-208.26706210382918 92.21502346595071) rotate(215.55780245900758)"><path class="outline" fill="#A5ABB6" stroke="none" d="M 25 0.5 L 48.86999164629516 0.5 L 48.86999164629516 -0.5 L 25 -0.5 Z M 94.43249164629516 0.5 L 118.30248329259032 0.5 L 118.30248329259032 3.5 L 125.30248329259032 0 L 118.30248329259032 -3.5 L 118.30248329259032 -0.5 L 94.43249164629516 -0.5 Z"/><text text-anchor="middle" pointer-events="none" font-size="8px" fill="#000000" x="71.65124164629516" y="3" transform="rotate(180 71.65124164629516 0)" font-family="sans-serif">ACTED_IN</text></g><g class="relationship" transform="translate(-184.7608125700422 -26.037521638794153) rotate(418.9442123567786)"><path class="outline" fill="#A5ABB6" stroke="none" d="M 25 0.5 L 45.8011421546762 0.5 L 45.8011421546762 -0.5 L 25 -0.5 Z M 91.3636421546762 0.5 L 112.1647843093524 0.5 L 112.1647843093524 3.5 L 119.1647843093524 0 L 112.1647843093524 -3.5 L 112.1647843093524 -0.5 L 91.3636421546762 -0.5 Z"/><text text-anchor="middle" pointer-events="none" font-size="8px" fill="#000000" x="68.5823921546762" y="3" font-family="sans-serif">ACTED_IN</text></g><g class="relationship" transform="translate(-184.7608125700422 -26.037521638794153) rotate(389.20802367613123)"><path class="outline" fill="#A5ABB6" stroke="none" d="M 25 0.5 L 25.214965476211724 0.5 L 25.214965476211724 -0.5 L 25 -0.5 Z M 70.77746547621172 0.5 L 70.99243095242345 0.5 L 70.99243095242345 3.5 L 77.99243095242345 0 L 70.99243095242345 -3.5 L 70.99243095242345 -0.5 L 70.77746547621172 -0.5 Z"/><text text-anchor="middle" pointer-events="none" font-size="8px" fill="#000000" x="47.996215476211724" y="3" font-family="sans-serif">ACTED_IN</text></g><g class="relationship" transform="translate(-184.7608125700422 -26.037521638794153) rotate(528.052208748132)"><path class="outline" fill="#A5ABB6" stroke="none" d="M 25 0.5 L 48.22363485370495 0.5 L 48.22363485370495 -0.5 L 25 -0.5 Z M 93.78613485370495 0.5 L 117.0097697074099 0.5 L 117.0097697074099 3.5 L 124.0097697074099 0 L 117.0097697074099 -3.5 L 117.0097697074099 -0.5 L 93.78613485370495 -0.5 Z"/><text text-anchor="middle" pointer-events="none" font-size="8px" fill="#000000" x="71.00488485370495" y="3" transform="rotate(180 71.00488485370495 0)" font-family="sans-serif">ACTED_IN</text></g><g class="relationship" transform="translate(-203.14922022220807 31.06274821594319) rotate(395.59663496648)"><path class="outline" fill="#A5ABB6" stroke="none" d="M 25 0.5 L 30.75666619356749 0.5 L 30.75666619356749 -0.5 L 25 -0.5 Z M 76.3191661935675 0.5 L 82.07583238713498 0.5 L 82.07583238713498 3.5 L 89.07583238713498 0 L 82.07583238713498 -3.5 L 82.07583238713498 -0.5 L 76.3191661935675 -0.5 Z"/><text text-anchor="middle" pointer-events="none" font-size="8px" fill="#000000" x="53.53791619356749" y="3" font-family="sans-serif">ACTED_IN</text></g><g class="relationship" transform="translate(-203.14922022220807 31.06274821594319) rotate(356.3846811686625)"><path class="outline" fill="#A5ABB6" stroke="none" d="M 25 0.5 L 27.96958288715367 0.5 L 27.96958288715367 -0.5 L 25 -0.5 Z M 73.53208288715368 0.5 L 76.50166577430734 0.5 L 76.50166577430734 3.5 L 83.50166577430734 0 L 76.50166577430734 -3.5 L 76.50166577430734 -0.5 L 73.53208288715368 -0.5 Z"/><text text-anchor="middle" pointer-events="none" font-size="8px" fill="#000000" x="50.75083288715367" y="3" font-family="sans-serif">ACTED_IN</text></g><g class="relationship" transform="translate(-203.14922022220807 31.06274821594319) rotate(191.64406978811758)"><path class="outline" fill="#A5ABB6" stroke="none" d="M 25 0.5 L 38.753807481869785 0.5 L 38.753807481869785 -0.5 L 25 -0.5 Z M 84.31630748186979 0.5 L 98.07011496373957 0.5 L 98.07011496373957 3.5 L 105.07011496373957 0 L 98.07011496373957 -3.5 L 98.07011496373957 -0.5 L 84.31630748186979 -0.5 Z"/><text text-anchor="middle" pointer-events="none" font-size="8px" fill="#000000" x="61.535057481869785" y="3" transform="rotate(180 61.535057481869785 0)" font-family="sans-serif">ACTED_IN</text></g><g class="relationship" transform="translate(-305.8873241103479 122.25535466645005) rotate(258.14405569615775)"><path class="outline" fill="#A5ABB6" stroke="none" d="M 25 0.5 L 33.72118124991946 0.5 L 33.72118124991946 -0.5 L 25 -0.5 Z M 79.28368124991945 0.5 L 88.00486249983892 0.5 L 88.00486249983892 3.5 L 95.00486249983892 0 L 88.00486249983892 -3.5 L 88.00486249983892 -0.5 L 79.28368124991945 -0.5 Z"/><text text-anchor="middle" pointer-events="none" font-size="8px" fill="#000000" x="56.50243124991946" y="3" transform="rotate(180 56.50243124991946 0)" font-family="sans-serif">ACTED_IN</text></g></g><g class="layer nodes"><g class="node" transform="translate(58.684492548785684,92.72707160353633)"><circle class="outline" cx="0" cy="0" r="25" fill="#57C7E3" stroke="#23b3d7" stroke-width="2px"/><text text-anchor="middle" pointer-events="none" font-family="sans-serif" dy="1.5625" font-size="25" fill="#2A2C34"/><text text-anchor="middle" pointer-events="none" font-family="sans-serif" dy="1.5625" font-size="25" fill="#2A2C34"/><text text-anchor="middle" pointer-events="none" x="0" y="0" font-size="10px" fill="#2A2C34" font-family="sans-serif"> Tom</text><text text-anchor="middle" pointer-events="none" x="0" y="10" font-size="10px" fill="#2A2C34" font-family="sans-serif"> Hanks</text></g><g class="node" transform="translate(156.25471814937407,-9.764595839459384)"><circle class="outline" cx="0" cy="0" r="25" fill="#F79767" stroke="#f36924" stroke-width="2px"/><text text-anchor="middle" pointer-events="none" font-family="sans-serif" dy="1.5625" font-size="25" fill="#FFFFFF"/><text text-anchor="middle" pointer-events="none" font-family="sans-serif" dy="1.5625" font-size="25" fill="#FFFFFF"/><text text-anchor="middle" pointer-events="none" x="0" y="0" font-size="10px" fill="#FFFFFF" font-family="sans-serif"> Cloud</text><text text-anchor="middle" pointer-events="none" x="0" y="10" font-size="10px" fill="#FFFFFF" font-family="sans-serif"> Atlas</text></g><g class="node" transform="translate(181.6906063323412,93.99205967769075)"><circle class="outline" cx="0" cy="0" r="25" fill="#57C7E3" stroke="#23b3d7" stroke-width="2px"/><text text-anchor="middle" pointer-events="none" font-family="sans-serif" dy="1.5625" font-size="25" fill="#2A2C34"/><text text-anchor="middle" pointer-events="none" font-family="sans-serif" dy="1.5625" font-size="25" fill="#2A2C34"/><text text-anchor="middle" pointer-events="none" x="0" y="0" font-size="10px" fill="#2A2C34" font-family="sans-serif"> Jim</text><text text-anchor="middle" pointer-events="none" x="0" y="10" font-size="10px" fill="#2A2C34" font-family="sans-serif"> Broadb…</text></g><g class="node" transform="translate(60.56550000236281,-50.8966179769381)"><circle class="outline" cx="0" cy="0" r="25" fill="#57C7E3" stroke="#23b3d7" stroke-width="2px"/><text text-anchor="middle" pointer-events="none" font-family="sans-serif" dy="1.5625" font-size="25" fill="#2A2C34"/><text text-anchor="middle" pointer-events="none" font-family="sans-serif" dy="1.5625" font-size="25" fill="#2A2C34"/><text text-anchor="middle" pointer-events="none" x="0" y="0" font-size="10px" fill="#2A2C34" font-family="sans-serif"> Halle</text><text text-anchor="middle" pointer-events="none" x="0" y="10" font-size="10px" fill="#2A2C34" font-family="sans-serif"> Berry</text></g><g class="node" transform="translate(348.0263933494068,34.312957381865736)"><circle class="outline" cx="0" cy="0" r="25" fill="#57C7E3" stroke="#23b3d7" stroke-width="2px"/><text text-anchor="middle" pointer-events="none" font-family="sans-serif" dy="1.5625" font-size="25" fill="#2A2C34"/><text text-anchor="middle" pointer-events="none" x="0" y="5" font-size="10px" fill="#2A2C34" font-family="sans-serif"> Ben Miles</text></g><g class="node" transform="translate(385.97505392060475,139.21674987670235)"><circle class="outline" cx="0" cy="0" r="25" fill="#F79767" stroke="#f36924" stroke-width="2px"/><text text-anchor="middle" pointer-events="none" font-family="sans-serif" dy="1.5625" font-size="25" fill="#FFFFFF"/><text text-anchor="middle" pointer-events="none" font-family="sans-serif" dy="1.5625" font-size="25" fill="#FFFFFF"/><text text-anchor="middle" pointer-events="none" x="0" y="0" font-size="10px" fill="#FFFFFF" font-family="sans-serif"> V for</text><text text-anchor="middle" pointer-events="none" x="0" y="10" font-size="10px" fill="#FFFFFF" font-family="sans-serif"> Vendetta</text></g><g class="node" transform="translate(286.26227715255834,201.0949288923597)"><circle class="outline" cx="0" cy="0" r="25" fill="#57C7E3" stroke="#23b3d7" stroke-width="2px"/><text text-anchor="middle" pointer-events="none" font-family="sans-serif" dy="1.5625" font-size="25" fill="#2A2C34"/><text text-anchor="middle" pointer-events="none" font-family="sans-serif" dy="1.5625" font-size="25" fill="#2A2C34"/><text text-anchor="middle" pointer-events="none" x="0" y="0" font-size="10px" fill="#2A2C34" font-family="sans-serif"> Natalie</text><text text-anchor="middle" pointer-events="none" x="0" y="10" font-size="10px" fill="#2A2C34" font-family="sans-serif"> Portman</text></g><g class="node" transform="translate(507.6355473829276,77.95835284876715)"><circle class="outline" cx="0" cy="0" r="25" fill="#57C7E3" stroke="#23b3d7" stroke-width="2px"/><text text-anchor="middle" pointer-events="none" font-family="sans-serif" dy="1.5625" font-size="25" fill="#2A2C34"/><text text-anchor="middle" pointer-events="none" x="0" y="5" font-size="10px" fill="#2A2C34" font-family="sans-serif"> John Hurt</text></g><g class="node" transform="translate(360.2549152846878,251.72128063974927)"><circle class="outline" cx="0" cy="0" r="25" fill="#57C7E3" stroke="#23b3d7" stroke-width="2px"/><text text-anchor="middle" pointer-events="none" font-family="sans-serif" dy="1.5625" font-size="25" fill="#2A2C34"/><text text-anchor="middle" pointer-events="none" font-family="sans-serif" dy="1.5625" font-size="25" fill="#2A2C34"/><text text-anchor="middle" pointer-events="none" x="0" y="0" font-size="10px" fill="#2A2C34" font-family="sans-serif"> Stephen</text><text text-anchor="middle" pointer-events="none" x="0" y="10" font-size="10px" fill="#2A2C34" font-family="sans-serif"> Rea</text></g><g class="node" transform="translate(-208.26706210382918,92.21502346595071)"><circle class="outline" cx="0" cy="0" r="25" fill="#57C7E3" stroke="#23b3d7" stroke-width="2px"/><text text-anchor="middle" pointer-events="none" font-family="sans-serif" dy="1.5625" font-size="25" fill="#2A2C34"/><text text-anchor="middle" pointer-events="none" font-family="sans-serif" dy="1.5625" font-size="25" fill="#2A2C34"/><text text-anchor="middle" pointer-events="none" x="0" y="0" font-size="10px" fill="#2A2C34" font-family="sans-serif"> Laurence</text><text text-anchor="middle" pointer-events="none" x="0" y="10" font-size="10px" fill="#2A2C34" font-family="sans-serif"> Fishbur…</text></g><g class="node" transform="translate(-110.39017415649332,97.4634628792382)"><circle class="outline" cx="0" cy="0" r="25" fill="#F79767" stroke="#f36924" stroke-width="2px"/><text text-anchor="middle" pointer-events="none" font-family="sans-serif" dy="1.5625" font-size="25" fill="#FFFFFF"/><text text-anchor="middle" pointer-events="none" font-family="sans-serif" dy="1.5625" font-size="25" fill="#FFFFFF"/><text text-anchor="middle" pointer-events="none" font-family="sans-serif" dy="1.5625" font-size="25" fill="#FFFFFF"/><text text-anchor="middle" pointer-events="none" x="0" y="-5" font-size="10px" fill="#FFFFFF" font-family="sans-serif"> The</text><text text-anchor="middle" pointer-events="none" x="0" y="5" font-size="10px" fill="#FFFFFF" font-family="sans-serif"> Matrix</text><text text-anchor="middle" pointer-events="none" x="0" y="15" font-size="10px" fill="#FFFFFF" font-family="sans-serif"> Revol…</text></g><g class="node" transform="translate(-184.7608125700422,-26.037521638794153)"><circle class="outline" cx="0" cy="0" r="25" fill="#57C7E3" stroke="#23b3d7" stroke-width="2px"/><text text-anchor="middle" pointer-events="none" font-family="sans-serif" dy="1.5625" font-size="25" fill="#2A2C34"/><text text-anchor="middle" pointer-events="none" x="0" y="5" font-size="10px" fill="#2A2C34" font-family="sans-serif"> Carrie-A…</text></g><g class="node" transform="translate(-203.14922022220807,31.06274821594319)"><circle class="outline" cx="0" cy="0" r="25" fill="#57C7E3" stroke="#23b3d7" stroke-width="2px"/><text text-anchor="middle" pointer-events="none" font-family="sans-serif" dy="1.5625" font-size="25" fill="#2A2C34"/><text text-anchor="middle" pointer-events="none" font-family="sans-serif" dy="1.5625" font-size="25" fill="#2A2C34"/><text text-anchor="middle" pointer-events="none" x="0" y="0" font-size="10px" fill="#2A2C34" font-family="sans-serif"> Keanu</text><text text-anchor="middle" pointer-events="none" x="0" y="10" font-size="10px" fill="#2A2C34" font-family="sans-serif"> Reeves</text></g><g class="node" transform="translate(-94.86348308889701,24.220920295353956)"><circle class="outline" cx="0" cy="0" r="25" fill="#F79767" stroke="#f36924" stroke-width="2px"/><text text-anchor="middle" pointer-events="none" font-family="sans-serif" dy="1.5625" font-size="25" fill="#FFFFFF"/><text text-anchor="middle" pointer-events="none" font-family="sans-serif" dy="1.5625" font-size="25" fill="#FFFFFF"/><text text-anchor="middle" pointer-events="none" font-family="sans-serif" dy="1.5625" font-size="25" fill="#FFFFFF"/><text text-anchor="middle" pointer-events="none" x="0" y="-5" font-size="10px" fill="#FFFFFF" font-family="sans-serif"> The</text><text text-anchor="middle" pointer-events="none" x="0" y="5" font-size="10px" fill="#FFFFFF" font-family="sans-serif"> Matrix</text><text text-anchor="middle" pointer-events="none" x="0" y="15" font-size="10px" fill="#FFFFFF" font-family="sans-serif"> Reloa…</text></g><g class="node" transform="translate(-305.8873241103479,122.25535466645005)"><circle class="outline" cx="0" cy="0" r="25" fill="#57C7E3" stroke="#23b3d7" stroke-width="2px"/><text text-anchor="middle" pointer-events="none" font-family="sans-serif" dy="1.5625" font-size="25" fill="#2A2C34"/><text text-anchor="middle" pointer-events="none" font-family="sans-serif" dy="1.5625" font-size="25" fill="#2A2C34"/><text text-anchor="middle" pointer-events="none" x="0" y="0" font-size="10px" fill="#2A2C34" font-family="sans-serif"> Emil</text><text text-anchor="middle" pointer-events="none" x="0" y="10" font-size="10px" fill="#2A2C34" font-family="sans-serif"> Eifrem</text></g><g class="node" transform="translate(-330.5425310033853,4.810525931138045)"><circle class="outline" cx="0" cy="0" r="25" fill="#F79767" stroke="#f36924" stroke-width="2px"/><text text-anchor="middle" pointer-events="none" font-family="sans-serif" dy="1.5625" font-size="25" fill="#FFFFFF"/><text text-anchor="middle" pointer-events="none" font-family="sans-serif" dy="1.5625" font-size="25" fill="#FFFFFF"/><text text-anchor="middle" pointer-events="none" x="0" y="0" font-size="10px" fill="#FFFFFF" font-family="sans-serif"> The</text><text text-anchor="middle" pointer-events="none" x="0" y="10" font-size="10px" fill="#FFFFFF" font-family="sans-serif"> Matrix</text></g></g></svg>