<svg xmlns="http://www.w3.org/2000/svg" width="389.29443359375" height="388.8988952636719" viewBox="-99.21478271484375 -95.363037109375 389.29443359375 388.8988952636719"><title>Neo4j Graph Visualization</title><desc>Created using Neo4j (http://www.neo4j.com/)</desc><g class="layer relationships"><g class="relationship" transform="translate(157.49004541390306 257.0358125280965) rotate(306.0155874329674)"><path class="outline" fill="#A5ABB6" stroke="none" d="M 31.26317983184346,8.894581878976458 L 31.52199887694598,7.92865605268739 A 91.39758025494558 91.39758025494558 0 0 0 37.606054441645895,9.337983002759884 L 37.41380231820288,10.31932856933247 A 92.39758025494558 92.39758025494558 0 0 1 31.26317983184346,8.894581878976458 Z M 73.15518116256672,10.277119025941843 L 72.96061169668081,9.29623028457263 A 91.39758025494558 91.39758025494558 0 0 0 79.04132154584427,7.8725370954188305 L 78.2580222017238,4.97660164422168 L 85.92905415599104,6.527494534337258 L 80.08572067133824,11.733784363681696 L 79.30242132721777,8.837848912484548 A 92.39758025494558 92.39758025494558 0 0 1 73.15518116256672,10.277119025941843"/><text text-anchor="middle" pointer-events="none" font-size="8px" fill="#000000" x="55.285961654286815" y="14.542888994652316" font-family="sans-serif">WROTE</text></g><g class="relationship" transform="translate(157.49004541390306 257.0358125280965) rotate(306.0155874329674)"><path class="outline" fill="#A5ABB6" stroke="none" d="M 31.26317983184346,-8.894581878976458 L 31.52199887694598,-7.92865605268739 A 91.39758025494558 91.39758025494558 0 0 1 32.21627394508127,-8.111766649510628 L 31.965051108392572,-9.079695927054232 A 92.39758025494558 92.39758025494558 0 0 0 31.26317983184346,-8.894581878976458 Z M 78.60098923661022,-9.024620221593707 L 78.34748091043147,-8.057287017078295 A 91.39758025494558 91.39758025494558 0 0 1 79.04132154584427,-7.8725370954188305 L 78.2580222017238,-4.97660164422168 L 85.92905415599104,-6.527494534337258 L 80.08572067133824,-11.733784363681696 L 79.30242132721777,-8.837848912484548 A 92.39758025494558 92.39758025494558 0 0 0 78.60098923661022,-9.024620221593707"/><text text-anchor="middle" pointer-events="none" font-size="8px" fill="#000000" x="55.2859616542868" y="-8.542888994652316" font-family="sans-serif">DIRECTED</text></g><g class="relationship" transform="translate(253.57967101551276 62.723453131077605) rotate(466.59247287485766)"><path class="outline" fill="#A5ABB6" stroke="none" d="M 31.26317983184346,8.894581878976458 L 31.52199887694598,7.92865605268739 A 91.01393481079174 91.01393481079174 0 0 0 37.50783569368873,9.317797954924572 L 37.31478500404944,10.29898673962903 A 92.01393481079174 92.01393481079174 0 0 1 31.26317983184346,8.894581878976458 Z M 73.05507368228402,10.256701645604991 L 72.85970180580084,9.275972411881725 A 91.01393481079174 91.01393481079174 0 0 0 78.8422348229783,7.872670477298494 L 78.05892302693246,4.976738394155756 L 85.72996164965234,6.527598300381989 L 79.88665055103942,11.733913254822145 L 79.10333875499359,8.837981171679408 A 92.01393481079174 92.01393481079174 0 0 1 73.05507368228402,10.256701645604991"/><text text-anchor="middle" pointer-events="none" font-size="8px" fill="#000000" x="55.18641057832482" y="14.529816628116095" transform="rotate(180 55.18641057832482 11.529816628116095)" font-family="sans-serif">WROTE</text></g><g class="relationship" transform="translate(253.57967101551276 62.723453131077605) rotate(466.59247287485766)"><path class="outline" fill="#A5ABB6" stroke="none" d="M 31.26317983184346,-8.894581878976458 L 31.52199887694598,-7.92865605268739 A 91.01393481079174 91.01393481079174 0 0 1 32.119341442057596,-8.086542344349084 L 31.867085595946016,-9.054202919190558 A 92.01393481079174 92.01393481079174 0 0 0 31.26317983184346,-8.894581878976458 Z M 78.49981238310573,-8.999030750477985 L 78.24526752687748,-8.031969782302895 A 91.01393481079174 91.01393481079174 0 0 1 78.8422348229783,-7.872670477298494 L 78.05892302693246,-4.976738394155756 L 85.72996164965234,-6.527598300381989 L 79.88665055103942,-11.733913254822145 L 79.10333875499359,-8.837981171679408 A 92.01393481079174 92.01393481079174 0 0 0 78.49981238310573,-8.999030750477985"/><text text-anchor="middle" pointer-events="none" font-size="8px" fill="#000000" x="55.1864105783248" y="-8.529816628116095" transform="rotate(180 55.1864105783248 -11.529816628116095)" font-family="sans-serif">DIRECTED</text></g><g class="relationship" transform="translate(128.52174200498115 -58.86303343484384) rotate(529.9402826799118)"><path class="outline" fill="#A5ABB6" stroke="none" d="M 27.89582562299426,16.683012701892217 L 28.39582562299426,15.816987298107778 A 54.31883875603963 54.31883875603963 0 0 0 30.953557696538088,17.203720601365696 L 30.50064508154334,18.09527551452507 A 55.31883875603963 55.31883875603963 0 0 1 27.89582562299426,16.683012701892217 Z M 80.83298272804929,17.981284323795194 L 80.37603644545446,17.091790032176206 A 54.31883875603963 54.31883875603963 0 0 0 82.927461047987,15.693485661879404 L 81.4157084033893,13.102230378903242 L 89.22568214903099,12.597938704980802 L 84.94313124078393,19.14849270584762 L 83.43137859618624,16.557237422871456 A 55.31883875603963 55.31883875603963 0 0 1 80.83298272804929,17.981284323795194"/><text text-anchor="middle" pointer-events="none" font-size="8px" fill="#000000" x="55.67939676846001" y="26.59419119989984" transform="rotate(180 55.67939676846001 23.59419119989984)" font-family="sans-serif">PRODUCED</text></g><g class="relationship" transform="translate(128.52174200498115 -58.86303343484384) rotate(529.9402826799118)"><path class="outline" fill="#A5ABB6" stroke="none" d="M 32.5 0.5 L 33.77106621191616 0.5 L 33.77106621191616 -0.5 L 32.5 -0.5 Z M 77.54840996191615 0.5 L 78.81947617383231 0.5 L 78.81947617383231 3.5 L 85.81947617383231 0 L 78.81947617383231 -3.5 L 78.81947617383231 -0.5 L 77.54840996191615 -0.5 Z"/><text text-anchor="middle" pointer-events="none" font-size="8px" fill="#000000" x="55.65973808691616" y="3" transform="rotate(180 55.65973808691616 0)" font-family="sans-serif">DIRECT…</text></g><g class="relationship" transform="translate(128.52174200498115 -58.86303343484384) rotate(529.9402826799118)"><path class="outline" fill="#A5ABB6" stroke="none" d="M 27.89582562299426,-16.683012701892217 L 28.39582562299426,-15.816987298107778 A 54.31883875603963 54.31883875603963 0 0 1 38.26106002653033,-20.267700304572607 L 37.94267720814652,-21.215662530063675 A 55.31883875603963 55.31883875603963 0 0 0 27.89582562299426,-16.683012701892217 Z M 73.40516079226057,-21.135348145335854 L 73.08248742831007,-20.188837764940125 A 54.31883875603963 54.31883875603963 0 0 1 82.927461047987,-15.693485661879404 L 81.4157084033893,-13.102230378903242 L 89.22568214903099,-12.597938704980802 L 84.94313124078393,-19.14849270584762 L 83.43137859618624,-16.557237422871456 A 55.31883875603963 55.31883875603963 0 0 0 73.40516079226057,-21.135348145335854"/><text text-anchor="middle" pointer-events="none" font-size="8px" fill="#000000" x="55.67939676846001" y="-20.59419119989984" transform="rotate(180 55.67939676846001 -23.59419119989984)" font-family="sans-serif">WROTE</text></g><g class="relationship" transform="translate(-62.71477700587195 111.16607612942919) rotate(427.7428936077555)"><path class="outline" fill="#A5ABB6" stroke="none" d="M 27.89582562299426,16.683012701892217 L 28.39582562299426,15.816987298107778 A 54.635860830784644 54.635860830784644 0 0 0 31.100539259067578,17.27867288251951 L 30.650043624789028,18.171451513253892 A 55.635860830784644 55.635860830784644 0 0 1 27.89582562299426,16.683012701892217 Z M 81.00155029008066,18.05774432539762 L 80.54702700466576,17.16700946977803 A 54.635860830784644 54.635860830784644 0 0 0 83.24511133261748,15.693122920514766 L 81.73339238782958,13.101847977177156 L 89.54337269120323,12.597657873232583 L 85.2607365923347,19.148156178298247 L 83.7490176475468,16.556881234960635 A 55.635860830784644 55.635860830784644 0 0 1 81.00155029008066,18.05774432539762"/><text text-anchor="middle" pointer-events="none" font-size="8px" fill="#000000" x="55.83826726186838" y="26.636664102135562" font-family="sans-serif">PRODUCED</text></g><g class="relationship" transform="translate(-62.71477700587195 111.16607612942919) rotate(427.7428936077555)"><path class="outline" fill="#A5ABB6" stroke="none" d="M 32.5 0.5 L 37.931946526175004 0.5 L 37.931946526175004 -0.5 L 32.5 -0.5 Z M 73.70538402617501 0.5 L 79.13733055235001 0.5 L 79.13733055235001 3.5 L 86.13733055235001 0 L 79.13733055235001 -3.5 L 79.13733055235001 -0.5 L 73.70538402617501 -0.5 Z"/><text text-anchor="middle" pointer-events="none" font-size="8px" fill="#000000" x="55.818665276175004" y="3" font-family="sans-serif">WROTE</text></g><g class="relationship" transform="translate(-62.71477700587195 111.16607612942919) rotate(427.7428936077555)"><path class="outline" fill="#A5ABB6" stroke="none" d="M 27.89582562299426,-16.683012701892217 L 28.39582562299426,-15.816987298107778 A 54.635860830784644 54.635860830784644 0 0 1 33.28735811566676,-18.32196316946458 L 32.87688782048504,-19.23383713925066 A 55.635860830784644 55.635860830784644 0 0 0 27.89582562299426,-16.683012701892217 Z M 78.7795270851725,-19.130176685539432 L 78.36494248627612,-18.22016591068128 A 54.635860830784644 54.635860830784644 0 0 1 83.24511133261748,-15.693122920514766 L 81.73339238782958,-13.101847977177156 L 89.54337269120323,-12.597657873232583 L 85.2607365923347,-19.148156178298247 L 83.7490176475468,-16.556881234960635 A 55.635860830784644 55.635860830784644 0 0 0 78.7795270851725,-19.130176685539432"/><text text-anchor="middle" pointer-events="none" font-size="8px" fill="#000000" x="55.838267261868374" y="-20.636664102135562" font-family="sans-serif">DIRECTED</text></g></g><g class="layer nodes"><g class="node" transform="translate(157.49004541390306,257.0358125280965)"><circle class="outline" cx="0" cy="0" r="32.5" fill="#57C7E3" stroke="#23b3d7" stroke-width="2px"/><text text-anchor="middle" pointer-events="none" font-family="sans-serif" dy="2.03125" font-size="32.5" fill="#2A2C34"/><text text-anchor="middle" pointer-events="none" font-family="sans-serif" dy="2.03125" font-size="32.5" fill="#2A2C34"/><text text-anchor="middle" pointer-events="none" x="0" y="0" font-size="10px" fill="#2A2C34" font-family="sans-serif"> Andy</text><text text-anchor="middle" pointer-events="none" x="0" y="10" font-size="10px" fill="#2A2C34" font-family="sans-serif"> Wachowski</text></g><g class="node" transform="translate(222.20699907551688,168.0115088671811)"><circle class="outline" cx="0" cy="0" r="25" fill="#F79767" stroke="#f36924" stroke-width="2px"/><text text-anchor="middle" pointer-events="none" font-family="sans-serif" dy="1.5625" font-size="25" fill="#FFFFFF"/><text text-anchor="middle" pointer-events="none" font-family="sans-serif" dy="1.5625" font-size="25" fill="#FFFFFF"/><text text-anchor="middle" pointer-events="none" x="0" y="0" font-size="10px" fill="#FFFFFF" font-family="sans-serif"> Speed</text><text text-anchor="middle" pointer-events="none" x="0" y="10" font-size="10px" fill="#FFFFFF" font-family="sans-serif"> Racer</text></g><g class="node" transform="translate(253.57967101551276,62.723453131077605)"><circle class="outline" cx="0" cy="0" r="32.5" fill="#57C7E3" stroke="#23b3d7" stroke-width="2px"/><text text-anchor="middle" pointer-events="none" font-family="sans-serif" dy="2.03125" font-size="32.5" fill="#2A2C34"/><text text-anchor="middle" pointer-events="none" font-family="sans-serif" dy="2.03125" font-size="32.5" fill="#2A2C34"/><text text-anchor="middle" pointer-events="none" x="0" y="0" font-size="10px" fill="#2A2C34" font-family="sans-serif"> Lana</text><text text-anchor="middle" pointer-events="none" x="0" y="10" font-size="10px" fill="#2A2C34" font-family="sans-serif"> Wachowski</text></g><g class="node" transform="translate(128.52174200498115,-58.86303343484384)"><circle class="outline" cx="0" cy="0" r="32.5" fill="#57C7E3" stroke="#23b3d7" stroke-width="2px"/><text text-anchor="middle" pointer-events="none" font-family="sans-serif" dy="2.03125" font-size="32.5" fill="#2A2C34"/><text text-anchor="middle" pointer-events="none" font-family="sans-serif" dy="2.03125" font-size="32.5" fill="#2A2C34"/><text text-anchor="middle" pointer-events="none" x="0" y="0" font-size="10px" fill="#2A2C34" font-family="sans-serif"> Cameron</text><text text-anchor="middle" pointer-events="none" x="0" y="10" font-size="10px" fill="#2A2C34" font-family="sans-serif"> Crowe</text></g><g class="node" transform="translate(19.405978867347276,-39.50569543773357)"><circle class="outline" cx="0" cy="0" r="25" fill="#F79767" stroke="#f36924" stroke-width="2px"/><text text-anchor="middle" pointer-events="none" font-family="sans-serif" dy="1.5625" font-size="25" fill="#FFFFFF"/><text text-anchor="middle" pointer-events="none" font-family="sans-serif" dy="1.5625" font-size="25" fill="#FFFFFF"/><text text-anchor="middle" pointer-events="none" x="0" y="0" font-size="10px" fill="#FFFFFF" font-family="sans-serif"> Jerry</text><text text-anchor="middle" pointer-events="none" x="0" y="10" font-size="10px" fill="#FFFFFF" font-family="sans-serif"> Maguire</text></g><g class="node" transform="translate(-62.71477700587195,111.16607612942919)"><circle class="outline" cx="0" cy="0" r="32.5" fill="#57C7E3" stroke="#23b3d7" stroke-width="2px"/><text text-anchor="middle" pointer-events="none" font-family="sans-serif" dy="2.03125" font-size="32.5" fill="#2A2C34"/><text text-anchor="middle" pointer-events="none" font-family="sans-serif" dy="2.03125" font-size="32.5" fill="#2A2C34"/><text text-anchor="middle" pointer-events="none" x="0" y="0" font-size="10px" fill="#2A2C34" font-family="sans-serif"> Nancy</text><text text-anchor="middle" pointer-events="none" x="0" y="10" font-size="10px" fill="#2A2C34" font-family="sans-serif"> Meyers</text></g><g class="node" transform="translate(-20.620022799224497,214.0229568452289)"><circle class="outline" cx="0" cy="0" r="25" fill="#F79767" stroke="#f36924" stroke-width="2px"/><text text-anchor="middle" pointer-events="none" font-family="sans-serif" dy="1.5625" font-size="25" fill="#FFFFFF"/><text text-anchor="middle" pointer-events="none" x="0" y="5" font-size="10px" fill="#FFFFFF" font-family="sans-serif"> Somethi…</text></g></g></svg>