<svg xmlns="http://www.w3.org/2000/svg" width="655.4721069335938" height="648.6433715820312" viewBox="-234.96470642089844 -217.35704040527344 655.4721069335938 648.6433715820312"><title>Neo4j Graph Visualization</title><desc>Created using Neo4j (http://www.neo4j.com/)</desc><g class="layer relationships"><g class="relationship" transform="translate(235.51383392512392 131.4076933438959) rotate(181.61850215514733)"><path class="outline" fill="#A5ABB6" stroke="none" d="M 25 0.5 L 61.90280055458102 0.5 L 61.90280055458102 -0.5 L 25 -0.5 Z M 96.34811305458102 0.5 L 133.25091360916204 0.5 L 133.25091360916204 3.5 L 140.25091360916204 0 L 133.25091360916204 -3.5 L 133.25091360916204 -0.5 L 96.34811305458102 -0.5 Z"/><text text-anchor="middle" pointer-events="none" font-size="8px" fill="#000000" x="79.12545680458102" y="3" transform="rotate(180 79.12545680458102 0)" font-family="sans-serif">ORIGIN</text></g><g class="relationship" transform="translate(235.51383392512392 131.4076933438959) rotate(354.9702511040516)"><path class="outline" fill="#A5ABB6" stroke="none" d="M 25 0.5 L 45.204530774391245 0.5 L 45.204530774391245 -0.5 L 25 -0.5 Z M 104.39203077439124 0.5 L 124.59656154878249 0.5 L 124.59656154878249 3.5 L 131.5965615487825 0 L 124.59656154878249 -3.5 L 124.59656154878249 -0.5 L 104.39203077439124 -0.5 Z"/><text text-anchor="middle" pointer-events="none" font-size="8px" fill="#000000" x="74.79828077439124" y="3" font-family="sans-serif">DESTINATION</text></g><g class="relationship" transform="translate(172.0087644969864 296.52949800590125) rotate(239.0843092637411)"><path class="outline" fill="#A5ABB6" stroke="none" d="M 25 0.5 L 78.23085028886302 0.5 L 78.23085028886302 -0.5 L 25 -0.5 Z M 112.67616278886302 0.5 L 165.90701307772605 0.5 L 165.90701307772605 3.5 L 172.90701307772605 0 L 165.90701307772605 -3.5 L 165.90701307772605 -0.5 L 112.67616278886302 -0.5 Z"/><text text-anchor="middle" pointer-events="none" font-size="8px" fill="#000000" x="95.45350653886302" y="3" transform="rotate(180 95.45350653886302 0)" font-family="sans-serif">ORIGIN</text></g><g class="relationship" transform="translate(172.0087644969864 296.52949800590125) rotate(488.1242917894323)"><path class="outline" fill="#A5ABB6" stroke="none" d="M 25 0.5 L 34.12400329130722 0.5 L 34.12400329130722 -0.5 L 25 -0.5 Z M 93.31150329130722 0.5 L 102.43550658261444 0.5 L 102.43550658261444 3.5 L 109.43550658261444 0 L 102.43550658261444 -3.5 L 102.43550658261444 -0.5 L 93.31150329130722 -0.5 Z"/><text text-anchor="middle" pointer-events="none" font-size="8px" fill="#000000" x="63.71775329130722" y="3" transform="rotate(180 63.71775329130722 0)" font-family="sans-serif">DESTINATION</text></g><g class="relationship" transform="translate(78.67682383230074 251.1005049477925) rotate(266.15964601203683)"><path class="outline" fill="#A5ABB6" stroke="none" d="M 25 0.5 L 41.59739585590084 0.5 L 41.59739585590084 -0.5 L 25 -0.5 Z M 76.04270835590084 0.5 L 92.64010421180168 0.5 L 92.64010421180168 3.5 L 99.64010421180168 0 L 92.64010421180168 -3.5 L 92.64010421180168 -0.5 L 76.04270835590084 -0.5 Z"/><text text-anchor="middle" pointer-events="none" font-size="8px" fill="#000000" x="58.82005210590084" y="3" transform="rotate(180 58.82005210590084 0)" font-family="sans-serif">ORIGIN</text></g><g class="relationship" transform="translate(78.67682383230074 251.1005049477925) rotate(446.08915519187013)"><path class="outline" fill="#A5ABB6" stroke="none" d="M 25 0.5 L 42.67559886318426 0.5 L 42.67559886318426 -0.5 L 25 -0.5 Z M 101.86309886318426 0.5 L 119.53869772636853 0.5 L 119.53869772636853 3.5 L 126.53869772636853 0 L 119.53869772636853 -3.5 L 119.53869772636853 -0.5 L 101.86309886318426 -0.5 Z"/><text text-anchor="middle" pointer-events="none" font-size="8px" fill="#000000" x="72.26934886318426" y="3" font-family="sans-serif">DESTINATION</text></g><g class="relationship" transform="translate(223.19084569374863 196.18188218731413) rotate(204.4311803886173)"><path class="outline" fill="#A5ABB6" stroke="none" d="M 25 0.5 L 63.22513595397666 0.5 L 63.22513595397666 -0.5 L 25 -0.5 Z M 97.67044845397666 0.5 L 135.89558440795332 0.5 L 135.89558440795332 3.5 L 142.89558440795332 0 L 135.89558440795332 -3.5 L 135.89558440795332 -0.5 L 97.67044845397666 -0.5 Z"/><text text-anchor="middle" pointer-events="none" font-size="8px" fill="#000000" x="80.44779220397666" y="3" transform="rotate(180 80.44779220397666 0)" font-family="sans-serif">ORIGIN</text></g><g class="relationship" transform="translate(223.19084569374863 196.18188218731413) rotate(387.0174131075621)"><path class="outline" fill="#A5ABB6" stroke="none" d="M 25 0.5 L 44.41492375028659 0.5 L 44.41492375028659 -0.5 L 25 -0.5 Z M 103.60242375028659 0.5 L 123.01734750057318 0.5 L 123.01734750057318 3.5 L 130.01734750057318 0 L 123.01734750057318 -3.5 L 123.01734750057318 -0.5 L 103.60242375028659 -0.5 Z"/><text text-anchor="middle" pointer-events="none" font-size="8px" fill="#000000" x="74.00867375028659" y="3" font-family="sans-serif">DESTINATION</text></g><g class="relationship" transform="translate(112.18042916601941 300.73445898247) rotate(256.4753206194513)"><path class="outline" fill="#A5ABB6" stroke="none" d="M 25 0.5 L 68.75573644678181 0.5 L 68.75573644678181 -0.5 L 25 -0.5 Z M 103.20104894678181 0.5 L 146.95678539356362 0.5 L 146.95678539356362 3.5 L 153.95678539356362 0 L 146.95678539356362 -3.5 L 146.95678539356362 -0.5 L 103.20104894678181 -0.5 Z"/><text text-anchor="middle" pointer-events="none" font-size="8px" fill="#000000" x="85.97839269678181" y="3" transform="rotate(180 85.97839269678181 0)" font-family="sans-serif">ORIGIN</text></g><g class="relationship" transform="translate(112.18042916601941 300.73445898247) rotate(462.8515061170086)"><path class="outline" fill="#A5ABB6" stroke="none" d="M 25 0.5 L 26.91259418945465 0.5 L 26.91259418945465 -0.5 L 25 -0.5 Z M 70.24853168945465 0.5 L 72.1611258789093 0.5 L 72.1611258789093 3.5 L 79.1611258789093 0 L 72.1611258789093 -3.5 L 72.1611258789093 -0.5 L 70.24853168945465 -0.5 Z"/><text text-anchor="middle" pointer-events="none" font-size="8px" fill="#000000" x="48.58056293945465" y="3" transform="rotate(180 48.58056293945465 0)" font-family="sans-serif">DESTIN…</text></g><g class="relationship" transform="translate(97.85244888734698 -34.24199891883668) rotate(459.70221218641103)"><path class="outline" fill="#A5ABB6" stroke="none" d="M 25 0.5 L 60.93645382034265 0.5 L 60.93645382034265 -0.5 L 25 -0.5 Z M 95.38176632034265 0.5 L 131.3182201406853 0.5 L 131.3182201406853 3.5 L 138.3182201406853 0 L 131.3182201406853 -3.5 L 131.3182201406853 -0.5 L 95.38176632034265 -0.5 Z"/><text text-anchor="middle" pointer-events="none" font-size="8px" fill="#000000" x="78.15911007034265" y="3" transform="rotate(180 78.15911007034265 0)" font-family="sans-serif">ORIGIN</text></g><g class="relationship" transform="translate(97.85244888734698 -34.24199891883668) rotate(284.0361064915304)"><path class="outline" fill="#A5ABB6" stroke="none" d="M 25 0.5 L 46.33527127750487 0.5 L 46.33527127750487 -0.5 L 25 -0.5 Z M 105.52277127750487 0.5 L 126.85804255500975 0.5 L 126.85804255500975 3.5 L 133.85804255500975 0 L 126.85804255500975 -3.5 L 126.85804255500975 -0.5 L 105.52277127750487 -0.5 Z"/><text text-anchor="middle" pointer-events="none" font-size="8px" fill="#000000" x="75.92902127750487" y="3" font-family="sans-serif">DESTINATION</text></g><g class="relationship" transform="translate(219.1779390996052 4.235407128767538) rotate(500.5451456242315)"><path class="outline" fill="#A5ABB6" stroke="none" d="M 25 0.5 L 75.66652177665144 0.5 L 75.66652177665144 -0.5 L 25 -0.5 Z M 110.11183427665144 0.5 L 160.77835605330287 0.5 L 160.77835605330287 3.5 L 167.77835605330287 0 L 160.77835605330287 -3.5 L 160.77835605330287 -0.5 L 110.11183427665144 -0.5 Z"/><text text-anchor="middle" pointer-events="none" font-size="8px" fill="#000000" x="92.88917802665144" y="3" transform="rotate(180 92.88917802665144 0)" font-family="sans-serif">ORIGIN</text></g><g class="relationship" transform="translate(219.1779390996052 4.235407128767538) rotate(321.93659604851575)"><path class="outline" fill="#A5ABB6" stroke="none" d="M 25 0.5 L 26.184707524903274 0.5 L 26.184707524903274 -0.5 L 25 -0.5 Z M 69.52064502490327 0.5 L 70.70535254980655 0.5 L 70.70535254980655 3.5 L 77.70535254980655 0 L 70.70535254980655 -3.5 L 70.70535254980655 -0.5 L 69.52064502490327 -0.5 Z"/><text text-anchor="middle" pointer-events="none" font-size="8px" fill="#000000" x="47.852676274903274" y="3" font-family="sans-serif">DESTIN…</text></g><g class="relationship" transform="translate(-38.623545912978294 56.36713555370577) rotate(392.8587097345593)"><path class="outline" fill="#A5ABB6" stroke="none" d="M 25 0.5 L 44.12910316836634 0.5 L 44.12910316836634 -0.5 L 25 -0.5 Z M 78.57441566836634 0.5 L 97.70351883673268 0.5 L 97.70351883673268 3.5 L 104.70351883673268 0 L 97.70351883673268 -3.5 L 97.70351883673268 -0.5 L 78.57441566836634 -0.5 Z"/><text text-anchor="middle" pointer-events="none" font-size="8px" fill="#000000" x="61.35175941836634" y="3" font-family="sans-serif">ORIGIN</text></g><g class="relationship" transform="translate(-38.623545912978294 56.36713555370577) rotate(216.59815341787066)"><path class="outline" fill="#A5ABB6" stroke="none" d="M 25 0.5 L 47.24853911862364 0.5 L 47.24853911862364 -0.5 L 25 -0.5 Z M 106.43603911862364 0.5 L 128.68457823724728 0.5 L 128.68457823724728 3.5 L 135.68457823724728 0 L 128.68457823724728 -3.5 L 128.68457823724728 -0.5 L 106.43603911862364 -0.5 Z"/><text text-anchor="middle" pointer-events="none" font-size="8px" fill="#000000" x="76.84228911862364" y="3" transform="rotate(180 76.84228911862364 0)" font-family="sans-serif">DESTINATION</text></g><g class="relationship" transform="translate(37.86750236856791 -33.29603485058079) rotate(438.53383606391924)"><path class="outline" fill="#A5ABB6" stroke="none" d="M 25 0.5 L 60.92500034779968 0.5 L 60.92500034779968 -0.5 L 25 -0.5 Z M 95.37031284779968 0.5 L 131.29531319559936 0.5 L 131.29531319559936 3.5 L 138.29531319559936 0 L 131.29531319559936 -3.5 L 131.29531319559936 -0.5 L 95.37031284779968 -0.5 Z"/><text text-anchor="middle" pointer-events="none" font-size="8px" fill="#000000" x="78.14765659779968" y="3" font-family="sans-serif">ORIGIN</text></g><g class="relationship" transform="translate(37.86750236856791 -33.29603485058079) rotate(254.7391502410012)"><path class="outline" fill="#A5ABB6" stroke="none" d="M 25 0.5 L 45.13041354187678 0.5 L 45.13041354187678 -0.5 L 25 -0.5 Z M 104.31791354187678 0.5 L 124.44832708375355 0.5 L 124.44832708375355 3.5 L 131.44832708375355 0 L 124.44832708375355 -3.5 L 124.44832708375355 -0.5 L 104.31791354187678 -0.5 Z"/><text text-anchor="middle" pointer-events="none" font-size="8px" fill="#000000" x="74.72416354187678" y="3" transform="rotate(180 74.72416354187678 0)" font-family="sans-serif">DESTINATION</text></g><g class="relationship" transform="translate(138.50590183914133 246.9429605828471) rotate(240.43878128849065)"><path class="outline" fill="#A5ABB6" stroke="none" d="M 25 0.5 L 48.3729232057409 0.5 L 48.3729232057409 -0.5 L 25 -0.5 Z M 82.8182357057409 0.5 L 106.1911589114818 0.5 L 106.1911589114818 3.5 L 113.1911589114818 0 L 106.1911589114818 -3.5 L 106.1911589114818 -0.5 L 82.8182357057409 -0.5 Z"/><text text-anchor="middle" pointer-events="none" font-size="8px" fill="#000000" x="65.5955794557409" y="3" transform="rotate(180 65.5955794557409 0)" font-family="sans-serif">ORIGIN</text></g><g class="relationship" transform="translate(138.50590183914133 246.9429605828471) rotate(467.67225275237877)"><path class="outline" fill="#A5ABB6" stroke="none" d="M 25 0.5 L 48.4249128306561 0.5 L 48.4249128306561 -0.5 L 25 -0.5 Z M 107.6124128306561 0.5 L 131.0373256613122 0.5 L 131.0373256613122 3.5 L 138.0373256613122 0 L 131.0373256613122 -3.5 L 131.0373256613122 -0.5 L 107.6124128306561 -0.5 Z"/><text text-anchor="middle" pointer-events="none" font-size="8px" fill="#000000" x="78.0186628306561" y="3" transform="rotate(180 78.0186628306561 0)" font-family="sans-serif">DESTINATION</text></g><g class="relationship" transform="translate(164.16757747270708 -19.478859799450206) rotate(482.6910401759603)"><path class="outline" fill="#A5ABB6" stroke="none" d="M 25 0.5 L 66.14756660990942 0.5 L 66.14756660990942 -0.5 L 25 -0.5 Z M 100.59287910990942 0.5 L 141.74044571981884 0.5 L 141.74044571981884 3.5 L 148.74044571981884 0 L 141.74044571981884 -3.5 L 141.74044571981884 -0.5 L 100.59287910990942 -0.5 Z"/><text text-anchor="middle" pointer-events="none" font-size="8px" fill="#000000" x="83.37022285990942" y="3" transform="rotate(180 83.37022285990942 0)" font-family="sans-serif">ORIGIN</text></g><g class="relationship" transform="translate(164.16757747270708 -19.478859799450206) rotate(343.74862412909306)"><path class="outline" fill="#A5ABB6" stroke="none" d="M 25 0.5 L 37.670394211700184 0.5 L 37.670394211700184 -0.5 L 25 -0.5 Z M 96.85789421170018 0.5 L 109.52828842340037 0.5 L 109.52828842340037 3.5 L 116.52828842340037 0 L 109.52828842340037 -3.5 L 109.52828842340037 -0.5 L 96.85789421170018 -0.5 Z"/><text text-anchor="middle" pointer-events="none" font-size="8px" fill="#000000" x="67.26414421170018" y="3" font-family="sans-serif">DESTINATION</text></g><g class="relationship" transform="translate(-30.32400406761714 -9.070892181072267) rotate(413.4569853865685)"><path class="outline" fill="#A5ABB6" stroke="none" d="M 25 0.5 L 63.79904159357724 0.5 L 63.79904159357724 -0.5 L 25 -0.5 Z M 98.24435409357724 0.5 L 137.0433956871545 0.5 L 137.0433956871545 3.5 L 144.0433956871545 0 L 137.0433956871545 -3.5 L 137.0433956871545 -0.5 L 98.24435409357724 -0.5 Z"/><text text-anchor="middle" pointer-events="none" font-size="8px" fill="#000000" x="81.02169784357724" y="3" font-family="sans-serif">ORIGIN</text></g><g class="relationship" transform="translate(-30.32400406761714 -9.070892181072267) rotate(192.46921528335008)"><path class="outline" fill="#A5ABB6" stroke="none" d="M 25 0.5 L 37.216218856761145 0.5 L 37.216218856761145 -0.5 L 25 -0.5 Z M 96.40371885676115 0.5 L 108.61993771352229 0.5 L 108.61993771352229 3.5 L 115.61993771352229 0 L 108.61993771352229 -3.5 L 108.61993771352229 -0.5 L 96.40371885676115 -0.5 Z"/><text text-anchor="middle" pointer-events="none" font-size="8px" fill="#000000" x="66.80996885676115" y="3" transform="rotate(180 66.80996885676115 0)" font-family="sans-serif">DESTINATION</text></g><g class="relationship" transform="translate(52.39513261237262 304.91664590661753) rotate(275.7475481297473)"><path class="outline" fill="#A5ABB6" stroke="none" d="M 25 0.5 L 68.81565594741856 0.5 L 68.81565594741856 -0.5 L 25 -0.5 Z M 103.26096844741856 0.5 L 147.07662439483713 0.5 L 147.07662439483713 3.5 L 154.07662439483713 0 L 147.07662439483713 -3.5 L 147.07662439483713 -0.5 L 103.26096844741856 -0.5 Z"/><text text-anchor="middle" pointer-events="none" font-size="8px" fill="#000000" x="86.03831219741856" y="3" font-family="sans-serif">ORIGIN</text></g><g class="relationship" transform="translate(52.39513261237262 304.91664590661753) rotate(429.3905143298548)"><path class="outline" fill="#A5ABB6" stroke="none" d="M 25 0.5 L 26.845679407959345 0.5 L 26.845679407959345 -0.5 L 25 -0.5 Z M 70.18161690795935 0.5 L 72.02729631591869 0.5 L 72.02729631591869 3.5 L 79.02729631591869 0 L 72.02729631591869 -3.5 L 72.02729631591869 -0.5 L 70.18161690795935 -0.5 Z"/><text text-anchor="middle" pointer-events="none" font-size="8px" fill="#000000" x="48.513648157959345" y="3" font-family="sans-serif">DESTIN…</text></g><g class="relationship" transform="translate(-71.20870893562386 214.37922753156468) rotate(328.23453095726654)"><path class="outline" fill="#A5ABB6" stroke="none" d="M 25 0.5 L 62.51415353923251 0.5 L 62.51415353923251 -0.5 L 25 -0.5 Z M 96.95946603923251 0.5 L 134.47361957846502 0.5 L 134.47361957846502 3.5 L 141.47361957846502 0 L 134.47361957846502 -3.5 L 134.47361957846502 -0.5 L 96.95946603923251 -0.5 Z"/><text text-anchor="middle" pointer-events="none" font-size="8px" fill="#000000" x="79.73680978923251" y="3" font-family="sans-serif">ORIGIN</text></g><g class="relationship" transform="translate(-71.20870893562386 214.37922753156468) rotate(530.9504355989923)"><path class="outline" fill="#A5ABB6" stroke="none" d="M 25 0.5 L 35.133497313215656 0.5 L 35.133497313215656 -0.5 L 25 -0.5 Z M 94.32099731321566 0.5 L 104.45449462643131 0.5 L 104.45449462643131 3.5 L 111.45449462643131 0 L 104.45449462643131 -3.5 L 104.45449462643131 -0.5 L 94.32099731321566 -0.5 Z"/><text text-anchor="middle" pointer-events="none" font-size="8px" fill="#000000" x="64.72724731321566" y="3" transform="rotate(180 64.72724731321566 0)" font-family="sans-serif">DESTINATION</text></g><g class="relationship" transform="translate(-92.58442881841954 158.38045839137288) rotate(349.00913315939783)"><path class="outline" fill="#A5ABB6" stroke="none" d="M 25 0.5 L 62.25601105950031 0.5 L 62.25601105950031 -0.5 L 25 -0.5 Z M 96.70132355950031 0.5 L 133.95733461900062 0.5 L 133.95733461900062 3.5 L 140.95733461900062 0 L 133.95733461900062 -3.5 L 133.95733461900062 -0.5 L 96.70132355950031 -0.5 Z"/><text text-anchor="middle" pointer-events="none" font-size="8px" fill="#000000" x="79.47866730950031" y="3" font-family="sans-serif">ORIGIN</text></g><g class="relationship" transform="translate(-92.58442881841954 158.38045839137288) rotate(505.6590658977765)"><path class="outline" fill="#A5ABB6" stroke="none" d="M 25 0.5 L 35.5636908387027 0.5 L 35.5636908387027 -0.5 L 25 -0.5 Z M 94.7511908387027 0.5 L 105.3148816774054 0.5 L 105.3148816774054 3.5 L 112.3148816774054 0 L 105.3148816774054 -3.5 L 105.3148816774054 -0.5 L 94.7511908387027 -0.5 Z"/><text text-anchor="middle" pointer-events="none" font-size="8px" fill="#000000" x="65.1574408387027" y="3" transform="rotate(180 65.1574408387027 0)" font-family="sans-serif">DESTINATION</text></g><g class="relationship" transform="translate(18.869310233986525 255.3436509655215) rotate(291.80839426406266)"><path class="outline" fill="#A5ABB6" stroke="none" d="M 25 0.5 L 48.53575911707078 0.5 L 48.53575911707078 -0.5 L 25 -0.5 Z M 82.98107161707078 0.5 L 106.51683073414156 0.5 L 106.51683073414156 3.5 L 113.51683073414156 0 L 106.51683073414156 -3.5 L 106.51683073414156 -0.5 L 82.98107161707078 -0.5 Z"/><text text-anchor="middle" pointer-events="none" font-size="8px" fill="#000000" x="65.75841536707078" y="3" font-family="sans-serif">ORIGIN</text></g><g class="relationship" transform="translate(18.869310233986525 255.3436509655215) rotate(424.4825263229346)"><path class="outline" fill="#A5ABB6" stroke="none" d="M 25 0.5 L 48.31908944555478 0.5 L 48.31908944555478 -0.5 L 25 -0.5 Z M 107.50658944555478 0.5 L 130.82567889110956 0.5 L 130.82567889110956 3.5 L 137.82567889110956 0 L 130.82567889110956 -3.5 L 130.82567889110956 -0.5 L 107.50658944555478 -0.5 Z"/><text text-anchor="middle" pointer-events="none" font-size="8px" fill="#000000" x="77.91283944555478" y="3" font-family="sans-serif">DESTINATION</text></g><g class="relationship" transform="translate(-84.04143284156481 17.477867167092064) rotate(395.2906431496591)"><path class="outline" fill="#A5ABB6" stroke="none" d="M 25 0.5 L 73.84009702783497 0.5 L 73.84009702783497 -0.5 L 25 -0.5 Z M 108.28540952783497 0.5 L 157.12550655566994 0.5 L 157.12550655566994 3.5 L 164.12550655566994 0 L 157.12550655566994 -3.5 L 157.12550655566994 -0.5 L 108.28540952783497 -0.5 Z"/><text text-anchor="middle" pointer-events="none" font-size="8px" fill="#000000" x="91.06275327783497" y="3" font-family="sans-serif">ORIGIN</text></g><g class="relationship" transform="translate(-84.04143284156481 17.477867167092064) rotate(214.24967935314112)"><path class="outline" fill="#A5ABB6" stroke="none" d="M 25 0.5 L 25.392342255432496 0.5 L 25.392342255432496 -0.5 L 25 -0.5 Z M 68.7282797554325 0.5 L 69.12062201086499 0.5 L 69.12062201086499 3.5 L 76.12062201086499 0 L 69.12062201086499 -3.5 L 69.12062201086499 -0.5 L 68.7282797554325 -0.5 Z"/><text text-anchor="middle" pointer-events="none" font-size="8px" fill="#000000" x="47.060311005432496" y="3" transform="rotate(180 47.060311005432496 0)" font-family="sans-serif">DESTIN…</text></g><g class="relationship" transform="translate(-95.11634647231857 76.39615609028552) rotate(376.9247344076513)"><path class="outline" fill="#A5ABB6" stroke="none" d="M 25 0.5 L 65.74502929402747 0.5 L 65.74502929402747 -0.5 L 25 -0.5 Z M 100.19034179402747 0.5 L 140.93537108805495 0.5 L 140.93537108805495 3.5 L 147.93537108805495 0 L 140.93537108805495 -3.5 L 140.93537108805495 -0.5 L 100.19034179402747 -0.5 Z"/><text text-anchor="middle" pointer-events="none" font-size="8px" fill="#000000" x="82.96768554402747" y="3" font-family="sans-serif">ORIGIN</text></g><g class="relationship" transform="translate(-95.11634647231857 76.39615609028552) rotate(237.9528236513534)"><path class="outline" fill="#A5ABB6" stroke="none" d="M 25 0.5 L 35.23295858714391 0.5 L 35.23295858714391 -0.5 L 25 -0.5 Z M 94.42045858714391 0.5 L 104.65341717428782 0.5 L 104.65341717428782 3.5 L 111.65341717428782 0 L 104.65341717428782 -3.5 L 104.65341717428782 -0.5 L 94.42045858714391 -0.5 Z"/><text text-anchor="middle" pointer-events="none" font-size="8px" fill="#000000" x="64.82670858714391" y="3" transform="rotate(180 64.82670858714391 0)" font-family="sans-serif">DESTINATION</text></g><g class="relationship" transform="translate(-7.436792486742384 309.10920496303436) rotate(293.0943377911178)"><path class="outline" fill="#A5ABB6" stroke="none" d="M 25 0.5 L 78.40594902966852 0.5 L 78.40594902966852 -0.5 L 25 -0.5 Z M 112.85126152966852 0.5 L 166.25721055933704 0.5 L 166.25721055933704 3.5 L 173.25721055933704 0 L 166.25721055933704 -3.5 L 166.25721055933704 -0.5 L 112.85126152966852 -0.5 Z"/><text text-anchor="middle" pointer-events="none" font-size="8px" fill="#000000" x="95.62860527966852" y="3" font-family="sans-serif">ORIGIN</text></g><g class="relationship" transform="translate(-7.436792486742384 309.10920496303436) rotate(404.01144234745107)"><path class="outline" fill="#A5ABB6" stroke="none" d="M 25 0.5 L 33.9592528290363 0.5 L 33.9592528290363 -0.5 L 25 -0.5 Z M 93.1467528290363 0.5 L 102.1060056580726 0.5 L 102.1060056580726 3.5 L 109.1060056580726 0 L 102.1060056580726 -3.5 L 102.1060056580726 -0.5 L 93.1467528290363 -0.5 Z"/><text text-anchor="middle" pointer-events="none" font-size="8px" fill="#000000" x="63.5530028290363" y="3" font-family="sans-serif">DESTINATION</text></g><g class="relationship" transform="translate(229.84313312440247 63.19760218651652) rotate(518.2800865179964)"><path class="outline" fill="#A5ABB6" stroke="none" d="M 25 0.5 L 65.129656560452 0.5 L 65.129656560452 -0.5 L 25 -0.5 Z M 99.574969060452 0.5 L 139.704625620904 0.5 L 139.704625620904 3.5 L 146.704625620904 0 L 139.704625620904 -3.5 L 139.704625620904 -0.5 L 99.574969060452 -0.5 Z"/><text text-anchor="middle" pointer-events="none" font-size="8px" fill="#000000" x="82.352312810452" y="3" transform="rotate(180 82.352312810452 0)" font-family="sans-serif">ORIGIN</text></g><g class="relationship" transform="translate(229.84313312440247 63.19760218651652) rotate(299.8582936618786)"><path class="outline" fill="#A5ABB6" stroke="none" d="M 25 0.5 L 37.40617754906009 0.5 L 37.40617754906009 -0.5 L 25 -0.5 Z M 96.59367754906009 0.5 L 108.99985509812018 0.5 L 108.99985509812018 3.5 L 115.99985509812018 0 L 108.99985509812018 -3.5 L 108.99985509812018 -0.5 L 96.59367754906009 -0.5 Z"/><text text-anchor="middle" pointer-events="none" font-size="8px" fill="#000000" x="66.99992754906009" y="3" font-family="sans-serif">DESTINATION</text></g><g class="relationship" transform="translate(171.48101002951083 40.3658912138119) rotate(499.50580567857895)"><path class="outline" fill="#A5ABB6" stroke="none" d="M 25 0.5 L 45.783535282021205 0.5 L 45.783535282021205 -0.5 L 25 -0.5 Z M 80.2288477820212 0.5 L 101.01238306404241 0.5 L 101.01238306404241 3.5 L 108.01238306404241 0 L 101.01238306404241 -3.5 L 101.01238306404241 -0.5 L 80.2288477820212 -0.5 Z"/><text text-anchor="middle" pointer-events="none" font-size="8px" fill="#000000" x="63.006191532021205" y="3" transform="rotate(180 63.006191532021205 0)" font-family="sans-serif">ORIGIN</text></g><g class="relationship" transform="translate(171.48101002951083 40.3658912138119) rotate(322.2750629590874)"><path class="outline" fill="#A5ABB6" stroke="none" d="M 25 0.5 L 48.17475141639966 0.5 L 48.17475141639966 -0.5 L 25 -0.5 Z M 107.36225141639966 0.5 L 130.53700283279932 0.5 L 130.53700283279932 3.5 L 137.53700283279932 0 L 130.53700283279932 -3.5 L 130.53700283279932 -0.5 L 107.36225141639966 -0.5 Z"/><text text-anchor="middle" pointer-events="none" font-size="8px" fill="#000000" x="77.76850141639966" y="3" font-family="sans-serif">DESTINATION</text></g></g><g class="layer nodes"><g class="node" transform="translate(70.32884776830136,126.74027467475193)"><circle class="outline" cx="0" cy="0" r="25" fill="#ECB5C9" stroke="#da7298" stroke-width="2px"/><text text-anchor="middle" pointer-events="none" font-family="sans-serif" dy="1.5625" font-size="25" fill="#2A2C34"/><text text-anchor="middle" pointer-events="none" x="0" y="5" font-size="10px" fill="#2A2C34" font-family="sans-serif"> LAX</text></g><g class="node" transform="translate(391.50739083913356,117.67840748419967)"><circle class="outline" cx="0" cy="0" r="25" fill="#ECB5C9" stroke="#da7298" stroke-width="2px"/><text text-anchor="middle" pointer-events="none" font-family="sans-serif" dy="1.5625" font-size="25" fill="#2A2C34"/><text text-anchor="middle" pointer-events="none" x="0" y="5" font-size="10px" fill="#2A2C34" font-family="sans-serif"> LAS</text></g><g class="node" transform="translate(89.01238868115395,402.2863277218173)"><circle class="outline" cx="0" cy="0" r="25" fill="#ECB5C9" stroke="#da7298" stroke-width="2px"/><text text-anchor="middle" pointer-events="none" font-family="sans-serif" dy="1.5625" font-size="25" fill="#2A2C34"/><text text-anchor="middle" pointer-events="none" x="0" y="5" font-size="10px" fill="#2A2C34" font-family="sans-serif"> ABQ</text></g><g class="node" transform="translate(361.2909187815389,266.6002593289414)"><circle class="outline" cx="0" cy="0" r="25" fill="#ECB5C9" stroke="#da7298" stroke-width="2px"/><text text-anchor="middle" pointer-events="none" font-family="sans-serif" dy="1.5625" font-size="25" fill="#2A2C34"/><text text-anchor="middle" pointer-events="none" x="0" y="5" font-size="10px" fill="#2A2C34" font-family="sans-serif"> IAH</text></g><g class="node" transform="translate(136.38081508945933,-188.35702960113326)"><circle class="outline" cx="0" cy="0" r="25" fill="#ECB5C9" stroke="#da7298" stroke-width="2px"/><text text-anchor="middle" pointer-events="none" font-family="sans-serif" dy="1.5625" font-size="25" fill="#2A2C34"/><text text-anchor="middle" pointer-events="none" x="0" y="5" font-size="10px" fill="#2A2C34" font-family="sans-serif"> EWR</text></g><g class="node" transform="translate(300.04083910283737,-59.08584400738209)"><circle class="outline" cx="0" cy="0" r="25" fill="#ECB5C9" stroke="#da7298" stroke-width="2px"/><text text-anchor="middle" pointer-events="none" font-family="sans-serif" dy="1.5625" font-size="25" fill="#2A2C34"/><text text-anchor="middle" pointer-events="none" x="0" y="5" font-size="10px" fill="#2A2C34" font-family="sans-serif"> FAT</text></g><g class="node" transform="translate(-167.62702091433437,-39.43284941944826)"><circle class="outline" cx="0" cy="0" r="25" fill="#ECB5C9" stroke="#da7298" stroke-width="2px"/><text text-anchor="middle" pointer-events="none" font-family="sans-serif" dy="1.5625" font-size="25" fill="#2A2C34"/><text text-anchor="middle" pointer-events="none" x="0" y="5" font-size="10px" fill="#2A2C34" font-family="sans-serif"> SMF</text></g><g class="node" transform="translate(-3.311872850362992,-184.22760246943128)"><circle class="outline" cx="0" cy="0" r="25" fill="#ECB5C9" stroke="#da7298" stroke-width="2px"/><text text-anchor="middle" pointer-events="none" font-family="sans-serif" dy="1.5625" font-size="25" fill="#2A2C34"/><text text-anchor="middle" pointer-events="none" x="0" y="5" font-size="10px" fill="#2A2C34" font-family="sans-serif"> BOS</text></g><g class="node" transform="translate(-205.96470610018773,235.84199370787175)"><circle class="outline" cx="0" cy="0" r="25" fill="#ECB5C9" stroke="#da7298" stroke-width="2px"/><text text-anchor="middle" pointer-events="none" font-family="sans-serif" dy="1.5625" font-size="25" fill="#2A2C34"/><text text-anchor="middle" pointer-events="none" x="0" y="5" font-size="10px" fill="#2A2C34" font-family="sans-serif"> TUS</text></g><g class="node" transform="translate(235.51383392512392,131.4076933438959)"><circle class="outline" cx="0" cy="0" r="25" fill="#4C8EDA" stroke="#2870c2" stroke-width="2px"/><text text-anchor="middle" pointer-events="none" font-family="sans-serif" dy="1.5625" font-size="25" fill="#FFFFFF"/><text text-anchor="middle" pointer-events="none" x="0" y="5" font-size="10px" fill="#FFFFFF" font-family="sans-serif"> 11/29/20…</text></g><g class="node" transform="translate(172.0087644969864,296.52949800590125)"><circle class="outline" cx="0" cy="0" r="25" fill="#4C8EDA" stroke="#2870c2" stroke-width="2px"/><text text-anchor="middle" pointer-events="none" font-family="sans-serif" dy="1.5625" font-size="25" fill="#FFFFFF"/><text text-anchor="middle" pointer-events="none" x="0" y="5" font-size="10px" fill="#FFFFFF" font-family="sans-serif"> 11/3/2015</text></g><g class="node" transform="translate(78.67682383230074,251.1005049477925)"><circle class="outline" cx="0" cy="0" r="25" fill="#4C8EDA" stroke="#2870c2" stroke-width="2px"/><text text-anchor="middle" pointer-events="none" font-family="sans-serif" dy="1.5625" font-size="25" fill="#FFFFFF"/><text text-anchor="middle" pointer-events="none" x="0" y="5" font-size="10px" fill="#FFFFFF" font-family="sans-serif"> 11/1/2015</text></g><g class="node" transform="translate(223.19084569374863,196.18188218731413)"><circle class="outline" cx="0" cy="0" r="25" fill="#4C8EDA" stroke="#2870c2" stroke-width="2px"/><text text-anchor="middle" pointer-events="none" font-family="sans-serif" dy="1.5625" font-size="25" fill="#FFFFFF"/><text text-anchor="middle" pointer-events="none" x="0" y="5" font-size="10px" fill="#FFFFFF" font-family="sans-serif"> 11/30/20…</text></g><g class="node" transform="translate(112.18042916601941,300.73445898247)"><circle class="outline" cx="0" cy="0" r="25" fill="#4C8EDA" stroke="#2870c2" stroke-width="2px"/><text text-anchor="middle" pointer-events="none" font-family="sans-serif" dy="1.5625" font-size="25" fill="#FFFFFF"/><text text-anchor="middle" pointer-events="none" x="0" y="5" font-size="10px" fill="#FFFFFF" font-family="sans-serif"> 11/4/2015</text></g><g class="node" transform="translate(97.85244888734698,-34.24199891883668)"><circle class="outline" cx="0" cy="0" r="25" fill="#4C8EDA" stroke="#2870c2" stroke-width="2px"/><text text-anchor="middle" pointer-events="none" font-family="sans-serif" dy="1.5625" font-size="25" fill="#FFFFFF"/><text text-anchor="middle" pointer-events="none" x="0" y="5" font-size="10px" fill="#FFFFFF" font-family="sans-serif"> 11/29/20…</text></g><g class="node" transform="translate(219.1779390996052,4.235407128767538)"><circle class="outline" cx="0" cy="0" r="25" fill="#4C8EDA" stroke="#2870c2" stroke-width="2px"/><text text-anchor="middle" pointer-events="none" font-family="sans-serif" dy="1.5625" font-size="25" fill="#FFFFFF"/><text text-anchor="middle" pointer-events="none" x="0" y="5" font-size="10px" fill="#FFFFFF" font-family="sans-serif"> 11/2/2015</text></g><g class="node" transform="translate(-38.623545912978294,56.36713555370577)"><circle class="outline" cx="0" cy="0" r="25" fill="#4C8EDA" stroke="#2870c2" stroke-width="2px"/><text text-anchor="middle" pointer-events="none" font-family="sans-serif" dy="1.5625" font-size="25" fill="#FFFFFF"/><text text-anchor="middle" pointer-events="none" x="0" y="5" font-size="10px" fill="#FFFFFF" font-family="sans-serif"> 11/3/2015</text></g><g class="node" transform="translate(37.86750236856791,-33.29603485058079)"><circle class="outline" cx="0" cy="0" r="25" fill="#4C8EDA" stroke="#2870c2" stroke-width="2px"/><text text-anchor="middle" pointer-events="none" font-family="sans-serif" dy="1.5625" font-size="25" fill="#FFFFFF"/><text text-anchor="middle" pointer-events="none" x="0" y="5" font-size="10px" fill="#FFFFFF" font-family="sans-serif"> 11/29/20…</text></g><g class="node" transform="translate(138.50590183914133,246.9429605828471)"><circle class="outline" cx="0" cy="0" r="25" fill="#4C8EDA" stroke="#2870c2" stroke-width="2px"/><text text-anchor="middle" pointer-events="none" font-family="sans-serif" dy="1.5625" font-size="25" fill="#FFFFFF"/><text text-anchor="middle" pointer-events="none" x="0" y="5" font-size="10px" fill="#FFFFFF" font-family="sans-serif"> 11/2/2015</text></g><g class="node" transform="translate(164.16757747270708,-19.478859799450206)"><circle class="outline" cx="0" cy="0" r="25" fill="#4C8EDA" stroke="#2870c2" stroke-width="2px"/><text text-anchor="middle" pointer-events="none" font-family="sans-serif" dy="1.5625" font-size="25" fill="#FFFFFF"/><text text-anchor="middle" pointer-events="none" x="0" y="5" font-size="10px" fill="#FFFFFF" font-family="sans-serif"> 11/3/2015</text></g><g class="node" transform="translate(-30.32400406761714,-9.070892181072267)"><circle class="outline" cx="0" cy="0" r="25" fill="#4C8EDA" stroke="#2870c2" stroke-width="2px"/><text text-anchor="middle" pointer-events="none" font-family="sans-serif" dy="1.5625" font-size="25" fill="#FFFFFF"/><text text-anchor="middle" pointer-events="none" x="0" y="5" font-size="10px" fill="#FFFFFF" font-family="sans-serif"> 11/1/2015</text></g><g class="node" transform="translate(52.39513261237262,304.91664590661753)"><circle class="outline" cx="0" cy="0" r="25" fill="#4C8EDA" stroke="#2870c2" stroke-width="2px"/><text text-anchor="middle" pointer-events="none" font-family="sans-serif" dy="1.5625" font-size="25" fill="#FFFFFF"/><text text-anchor="middle" pointer-events="none" x="0" y="5" font-size="10px" fill="#FFFFFF" font-family="sans-serif"> 11/2/2015</text></g><g class="node" transform="translate(-71.20870893562386,214.37922753156468)"><circle class="outline" cx="0" cy="0" r="25" fill="#4C8EDA" stroke="#2870c2" stroke-width="2px"/><text text-anchor="middle" pointer-events="none" font-family="sans-serif" dy="1.5625" font-size="25" fill="#FFFFFF"/><text text-anchor="middle" pointer-events="none" x="0" y="5" font-size="10px" fill="#FFFFFF" font-family="sans-serif"> 11/2/2015</text></g><g class="node" transform="translate(-92.58442881841954,158.38045839137288)"><circle class="outline" cx="0" cy="0" r="25" fill="#4C8EDA" stroke="#2870c2" stroke-width="2px"/><text text-anchor="middle" pointer-events="none" font-family="sans-serif" dy="1.5625" font-size="25" fill="#FFFFFF"/><text text-anchor="middle" pointer-events="none" x="0" y="5" font-size="10px" fill="#FFFFFF" font-family="sans-serif"> 11/1/2015</text></g><g class="node" transform="translate(18.869310233986525,255.3436509655215)"><circle class="outline" cx="0" cy="0" r="25" fill="#4C8EDA" stroke="#2870c2" stroke-width="2px"/><text text-anchor="middle" pointer-events="none" font-family="sans-serif" dy="1.5625" font-size="25" fill="#FFFFFF"/><text text-anchor="middle" pointer-events="none" x="0" y="5" font-size="10px" fill="#FFFFFF" font-family="sans-serif"> 11/3/2015</text></g><g class="node" transform="translate(-84.04143284156481,17.477867167092064)"><circle class="outline" cx="0" cy="0" r="25" fill="#4C8EDA" stroke="#2870c2" stroke-width="2px"/><text text-anchor="middle" pointer-events="none" font-family="sans-serif" dy="1.5625" font-size="25" fill="#FFFFFF"/><text text-anchor="middle" pointer-events="none" x="0" y="5" font-size="10px" fill="#FFFFFF" font-family="sans-serif"> 11/4/2015</text></g><g class="node" transform="translate(-95.11634647231857,76.39615609028552)"><circle class="outline" cx="0" cy="0" r="25" fill="#4C8EDA" stroke="#2870c2" stroke-width="2px"/><text text-anchor="middle" pointer-events="none" font-family="sans-serif" dy="1.5625" font-size="25" fill="#FFFFFF"/><text text-anchor="middle" pointer-events="none" x="0" y="5" font-size="10px" fill="#FFFFFF" font-family="sans-serif"> 11/2/2015</text></g><g class="node" transform="translate(-7.436792486742384,309.10920496303436)"><circle class="outline" cx="0" cy="0" r="25" fill="#4C8EDA" stroke="#2870c2" stroke-width="2px"/><text text-anchor="middle" pointer-events="none" font-family="sans-serif" dy="1.5625" font-size="25" fill="#FFFFFF"/><text text-anchor="middle" pointer-events="none" x="0" y="5" font-size="10px" fill="#FFFFFF" font-family="sans-serif"> 11/1/2015</text></g><g class="node" transform="translate(229.84313312440247,63.19760218651652)"><circle class="outline" cx="0" cy="0" r="25" fill="#4C8EDA" stroke="#2870c2" stroke-width="2px"/><text text-anchor="middle" pointer-events="none" font-family="sans-serif" dy="1.5625" font-size="25" fill="#FFFFFF"/><text text-anchor="middle" pointer-events="none" x="0" y="5" font-size="10px" fill="#FFFFFF" font-family="sans-serif"> 11/1/2015</text></g><g class="node" transform="translate(171.48101002951083,40.3658912138119)"><circle class="outline" cx="0" cy="0" r="25" fill="#4C8EDA" stroke="#2870c2" stroke-width="2px"/><text text-anchor="middle" pointer-events="none" font-family="sans-serif" dy="1.5625" font-size="25" fill="#FFFFFF"/><text text-anchor="middle" pointer-events="none" x="0" y="5" font-size="10px" fill="#FFFFFF" font-family="sans-serif"> 11/4/2015</text></g></g></svg>