<svg xmlns="http://www.w3.org/2000/svg" width="376.6624755859375" height="354.3963623046875" viewBox="-72.84805297851562 -80.12078857421875 376.6624755859375 354.3963623046875"><title>Neo4j Graph Visualization</title><desc>Created using Neo4j (http://www.neo4j.com/)</desc><g class="layer relationships"><g class="relationship" transform="translate(19.156048537533618 -36.039807460317775) rotate(388.27459005581056)"><path class="outline" fill="#A5ABB6" stroke="none" d="M 24.018736134675446,-6.953439040707552 L 24.277555179777966,-5.987513214418485 A 166.72583536352485 166.72583536352485 0 0 1 54.37973652313873,-11.157075705072259 L 54.30146646900529,-12.154007898667146 A 167.72583536352485 167.72583536352485 0 0 0 24.018736134675446,-6.953439040707552 Z M 76.3613313367006,-12.430561394467304 L 76.30807803416162,-11.43198035831216 A 166.72583536352485 166.72583536352485 0 0 1 106.53039498847403,-7.018675940256214 L 105.82682643437322,-4.10234411934137 L 113.4524306629588,-5.863071284173458 L 107.46848639394177,-10.907118368142672 L 106.76491783984096,-7.990786547227829 A 167.72583536352485 167.72583536352485 0 0 0 76.3613313367006,-12.430561394467304"/><text text-anchor="middle" pointer-events="none" font-size="8px" fill="#000000" x="65.33311472012244" y="-9.15541891289368" font-family="sans-serif">road</text></g><g class="relationship" transform="translate(140.47533018368043 29.214509492829414) rotate(378.09194194926044)"><path class="outline" fill="#A5ABB6" stroke="none" d="M 21.40063509461097,-12.933012701892217 L 21.90063509461097,-12.06698729810778 A 94.70182760796278 94.70182760796278 0 0 1 44.19467431892913,-21.37962503119897 L 43.930087296560444,-22.343986844832244 A 95.70182760796278 95.70182760796278 0 0 0 21.40063509461097,-12.933012701892217 Z M 90.16370559126263,-23.44188547966243 L 89.94519193049602,-22.466051590079587 A 94.70182760796278 94.70182760796278 0 0 1 112.65614239906118,-14.222136543355077 L 111.28115541316633,-11.555788706215333 L 119.10678518336972,-11.458224882457053 L 114.4894583802543,-17.777266992874736 L 113.11447139435946,-15.110919155734994 A 95.70182760796278 95.70182760796278 0 0 0 90.16370559126263,-23.44188547966243"/><text text-anchor="middle" pointer-events="none" font-size="8px" fill="#000000" x="66.9914511069664" y="-22.22779519496582" font-family="sans-serif">twowheeler</text></g><g class="relationship" transform="translate(274.81442331850315 73.10238252566462) rotate(209.4089496582517)"><path class="outline" fill="#A5ABB6" stroke="none" d="M 21.40063509461097,12.933012701892217 L 21.90063509461097,12.06698729810778 A 37.02603451251811 37.02603451251811 0 0 0 23.72439167714774,13.052912426024541 L 23.273647737283483,13.945565718560701 A 38.02603451251811 38.02603451251811 0 0 1 21.40063509461097,12.933012701892217 Z M 54.9122092425688,15.155037598291798 L 54.53092949363979,14.230577889566405 A 37.02603451251811 37.02603451251811 0 0 0 56.42463297000896,13.386762996481883 L 55.12735816081551,10.68175318699281 L 62.95253499368236,10.81062340994536 L 58.15433271560021,16.993442742467316 L 56.857057906406766,14.28843293297824 A 38.02603451251811 38.02603451251811 0 0 1 54.9122092425688,15.155037598291798"/><text text-anchor="middle" pointer-events="none" font-size="8px" fill="#000000" x="38.98016250691097" y="20.50014575907847" transform="rotate(180 38.98016250691097 17.50014575907847)" font-family="sans-serif">twow…</text></g><g class="relationship" transform="translate(200.33717942441132 31.121283956653567) rotate(464.2662570332197)"><path class="outline" fill="#A5ABB6" stroke="none" d="M 25 0.5 L 57.666449927549266 0.5 L 57.666449927549266 -0.5 L 25 -0.5 Z M 77.00238742754927 0.5 L 109.66883735509853 0.5 L 109.66883735509853 3.5 L 116.66883735509853 0 L 109.66883735509853 -3.5 L 109.66883735509853 -0.5 L 77.00238742754927 -0.5 Z"/><text text-anchor="middle" pointer-events="none" font-size="8px" fill="#000000" x="67.33441867754927" y="3" transform="rotate(180 67.33441867754927 0)" font-family="sans-serif">trek</text></g><g class="relationship" transform="translate(19.156048537533618 -36.039807460317775) rotate(388.27459005581056)"><path class="outline" fill="#A5ABB6" stroke="none" d="M 24.018736134675446,6.953439040707552 L 24.277555179777966,5.987513214418485 A 166.72583536352485 166.72583536352485 0 0 0 55.70993823213513,11.256158764668811 L 55.63964655583435,12.253685245642032 A 167.72583536352485 167.72583536352485 0 0 1 24.018736134675446,6.953439040707552 Z M 75.02107299339971,12.496660498076665 L 74.97581045948857,11.497685371747707 A 166.72583536352485 166.72583536352485 0 0 0 106.53039498847403,7.018675940256214 L 105.82682643437322,4.10234411934137 L 113.4524306629588,5.863071284173458 L 107.46848639394177,10.907118368142672 L 106.76491783984096,7.990786547227829 A 167.72583536352485 167.72583536352485 0 0 1 75.02107299339971,12.496660498076665"/><text text-anchor="middle" pointer-events="none" font-size="8px" fill="#000000" x="65.33311472012247" y="15.15541891289368" font-family="sans-serif">trek</text></g><g class="relationship" transform="translate(140.47533018368043 29.214509492829414) rotate(378.09194194926044)"><path class="outline" fill="#A5ABB6" stroke="none" d="M 25 0.5 L 56.15731587143377 0.5 L 56.15731587143377 -0.5 L 25 -0.5 Z M 78.16903462143377 0.5 L 109.32635049286753 0.5 L 109.32635049286753 3.5 L 116.32635049286753 0 L 109.32635049286753 -3.5 L 109.32635049286753 -0.5 L 78.16903462143377 -0.5 Z"/><text text-anchor="middle" pointer-events="none" font-size="8px" fill="#000000" x="67.16317524643377" y="3" font-family="sans-serif">road</text></g><g class="relationship" transform="translate(140.47533018368043 29.214509492829414) rotate(378.09194194926044)"><path class="outline" fill="#A5ABB6" stroke="none" d="M 21.40063509461097,12.933012701892217 L 21.90063509461097,12.06698729810778 A 94.70182760796278 94.70182760796278 0 0 0 57.41693889416269,24.012248347306837 L 57.29197182326918,25.00440923707839 A 95.70182760796278 95.70182760796278 0 0 1 21.40063509461097,12.933012701892217 Z M 76.6906007222825,25.465063820720275 L 76.61286916783232,24.468089495352388 A 94.70182760796278 94.70182760796278 0 0 0 112.65614239906118,14.222136543355077 L 111.28115541316633,11.555788706215333 L 119.10678518336972,11.458224882457053 L 114.4894583802543,17.777266992874736 L 113.11447139435946,15.110919155734994 A 95.70182760796278 95.70182760796278 0 0 1 76.6906007222825,25.465063820720275"/><text text-anchor="middle" pointer-events="none" font-size="8px" fill="#000000" x="66.99145110696642" y="28.22779519496582" font-family="sans-serif">trek</text></g><g class="relationship" transform="translate(274.81442331850315 73.10238252566462) rotate(209.4089496582517)"><path class="outline" fill="#A5ABB6" stroke="none" d="M 25 0.5 L 28.241282328045656 0.5 L 28.241282328045656 -0.5 L 25 -0.5 Z M 50.253001078045656 0.5 L 53.49428340609131 0.5 L 53.49428340609131 3.5 L 60.49428340609131 0 L 53.49428340609131 -3.5 L 53.49428340609131 -0.5 L 50.253001078045656 -0.5 Z"/><text text-anchor="middle" pointer-events="none" font-size="8px" fill="#000000" x="39.247141703045656" y="3" transform="rotate(180 39.247141703045656 0)" font-family="sans-serif">road</text></g><g class="relationship" transform="translate(274.81442331850315 73.10238252566462) rotate(209.4089496582517)"><path class="outline" fill="#A5ABB6" stroke="none" d="M 21.40063509461097,-12.933012701892217 L 21.90063509461097,-12.06698729810778 A 37.02603451251811 37.02603451251811 0 0 1 29.618854610099945,-15.419004581127666 L 29.327308462020802,-16.375561345538543 A 38.02603451251811 38.02603451251811 0 0 0 21.40063509461097,-12.933012701892217 Z M 48.69070033313764,-17.115780775565952 L 48.47303240934867,-16.139757889075376 A 37.02603451251811 37.02603451251811 0 0 1 56.42463297000896,-13.386762996481883 L 55.12735816081551,-10.68175318699281 L 62.95253499368236,-10.81062340994536 L 58.15433271560021,-16.993442742467316 L 56.857057906406766,-14.28843293297824 A 38.02603451251811 38.02603451251811 0 0 0 48.69070033313764,-17.115780775565952"/><text text-anchor="middle" pointer-events="none" font-size="8px" fill="#000000" x="38.98016250691097" y="-14.500145759078471" transform="rotate(180 38.98016250691097 -17.50014575907847)" font-family="sans-serif">trek</text></g><g class="relationship" transform="translate(19.156048537533618 -36.039807460317775) rotate(349.8959211325548)"><path class="outline" fill="#A5ABB6" stroke="none" d="M 21.40063509461097,12.933012701892217 L 21.90063509461097,12.06698729810778 A 37.51965562035463 37.51965562035463 0 0 0 29.848839061984,15.502181668793433 L 29.560680131310367,16.459764266104507 A 38.51965562035463 38.51965562035463 0 0 1 21.40063509461097,12.933012701892217 Z M 48.9264600542733,17.19630844178444 L 48.71186838629595,16.219604589004746 A 37.51965562035463 37.51965562035463 0 0 0 56.898036925507775,13.398053363353736 L 55.59971152095018,10.693547651790094 L 63.42493781991587,10.81937837131329 L 58.6291374649179,17.004060978771925 L 57.33081206036031,14.299555267208284 A 38.51965562035463 38.51965562035463 0 0 1 48.9264600542733,17.19630844178444"/><text text-anchor="middle" pointer-events="none" font-size="8px" fill="#000000" x="39.21549532506181" y="20.56619950993725" font-family="sans-serif">trek</text></g><g class="relationship" transform="translate(103.78531539256447 -51.12079186200895) rotate(400.42408129419334)"><path class="outline" fill="#A5ABB6" stroke="none" d="M 25 0.5 L 50.2473714347433 0.5 L 50.2473714347433 -0.5 L 25 -0.5 Z M 69.5833089347433 0.5 L 94.8306803694866 0.5 L 94.8306803694866 3.5 L 101.8306803694866 0 L 94.8306803694866 -3.5 L 94.8306803694866 -0.5 L 69.5833089347433 -0.5 Z"/><text text-anchor="middle" pointer-events="none" font-size="8px" fill="#000000" x="59.9153401847433" y="3" font-family="sans-serif">trek</text></g><g class="relationship" transform="translate(19.156048537533618 -36.039807460317775) rotate(349.8959211325548)"><path class="outline" fill="#A5ABB6" stroke="none" d="M 25 0.5 L 28.47538333313978 0.5 L 28.47538333313978 -0.5 L 25 -0.5 Z M 50.48710208313978 0.5 L 53.96248541627956 0.5 L 53.96248541627956 3.5 L 60.96248541627956 0 L 53.96248541627956 -3.5 L 53.96248541627956 -0.5 L 50.48710208313978 -0.5 Z"/><text text-anchor="middle" pointer-events="none" font-size="8px" fill="#000000" x="39.48124270813978" y="3" font-family="sans-serif">road</text></g><g class="relationship" transform="translate(19.156048537533618 -36.039807460317775) rotate(349.8959211325548)"><path class="outline" fill="#A5ABB6" stroke="none" d="M 21.40063509461097,-12.933012701892217 L 21.90063509461097,-12.06698729810778 A 37.51965562035463 37.51965562035463 0 0 1 22.38745283801256,-12.343230582470454 L 21.900427843655667,-13.216618614717099 A 38.51965562035463 38.51965562035463 0 0 0 21.40063509461097,-12.933012701892217 Z M 56.810921387038306,-14.544379272525738 L 56.39164301546024,-13.636521548470448 A 37.51965562035463 37.51965562035463 0 0 1 56.898036925507775,-13.398053363353736 L 55.59971152095018,-10.693547651790094 L 63.42493781991587,-10.81937837131329 L 58.6291374649179,-17.004060978771925 L 57.33081206036031,-14.299555267208284 A 38.51965562035463 38.51965562035463 0 0 0 56.810921387038306,-14.544379272525738"/><text text-anchor="middle" pointer-events="none" font-size="8px" fill="#000000" x="39.215495325061795" y="-14.566199509937249" font-family="sans-serif">Public…</text></g><g class="relationship" transform="translate(103.78531539256447 -51.12079186200895) rotate(491.9009535219053)"><path class="outline" fill="#A5ABB6" stroke="none" d="M 24.018736134675446,-6.953439040707552 L 24.277555179777966,-5.987513214418485 A 181.63744181849276 181.63744181849276 0 0 1 46.03849922713901,-10.413015587817256 L 45.899484468143456,-11.403305897161658 A 182.63744181849276 182.63744181849276 0 0 0 24.018736134675446,-6.953439040707552 Z M 92.36234470038285,-11.95680231762583 L 92.24696003410384,-10.963481433526596 A 181.63744181849276 181.63744181849276 0 0 1 114.10715277965626,-7.057622985421535 L 113.3999466894658,-4.142171125761094 L 121.02774146722903,-5.893384084920528 L 115.05009423324354,-10.944892131635456 L 114.34288814305309,-8.029440271975014 A 182.63744181849276 182.63744181849276 0 0 0 92.36234470038285,-11.95680231762583"/><text text-anchor="middle" pointer-events="none" font-size="8px" fill="#000000" x="69.11919630533988" y="-9.66373663115391" transform="rotate(180 69.11919630533988 -12.66373663115391)" font-family="sans-serif">twowheeler</text></g><g class="relationship" transform="translate(6.731968886496248 57.04330905034565) rotate(425.0210994122924)"><path class="outline" fill="#A5ABB6" stroke="none" d="M 24.018736134675446,-6.953439040707552 L 24.277555179777966,-5.987513214418485 A 116.34460065281802 116.34460065281802 0 0 1 29.676677901576745,-7.29687998615195 L 29.46426515888537,-8.274060024191172 A 117.34460065281802 117.34460065281802 0 0 0 24.018736134675446,-6.953439040707552 Z M 75.81571709384747,-8.97919372099092 L 75.63312698445108,-7.996004597805239 A 116.34460065281802 116.34460065281802 0 0 1 81.0695802237836,-6.851476885377785 L 80.38162840348838,-3.931421698749888 L 87.99770096263124,-5.732931835793569 L 81.98684931751058,-10.744883800881647 L 81.29889749721535,-7.82482861425375 A 117.34460065281802 117.34460065281802 0 0 0 75.81571709384747,-8.97919372099092"/><text text-anchor="middle" pointer-events="none" font-size="8px" fill="#000000" x="52.61242994508292" y="-7.4383411266831985" font-family="sans-serif">twowheeler</text></g><g class="relationship" transform="translate(54.16781565646088 158.86769231361723) rotate(364.9078314138765)"><path class="outline" fill="#A5ABB6" stroke="none" d="M 24.018736134675446,6.953439040707552 L 24.277555179777966,5.987513214418485 A 115.02120161140516 115.02120161140516 0 0 0 29.349732719519565,7.223938183151745 L 29.135011436122557,8.200613549103167 A 116.02120161140516 116.02120161140516 0 0 1 24.018736134675446,6.953439040707552 Z M 75.48160942032345,8.909626029160748 L 75.29686407744441,7.926839603590821 A 115.02120161140516 115.02120161140516 0 0 0 80.40448901225267,6.846145741624814 L 79.71703515429577,3.925973282132024 L 87.33280039406199,5.728782149640844 L 81.3210941561952,10.739709020948535 L 80.6336402982383,7.819536561455744 A 116.02120161140516 116.02120161140516 0 0 1 75.48160942032345,8.909626029160748"/><text text-anchor="middle" pointer-events="none" font-size="8px" fill="#000000" x="52.2801906200458" y="13.393250261639281" font-family="sans-serif">twowheeler</text></g><g class="relationship" transform="translate(103.78531539256447 -51.12079186200895) rotate(491.9009535219053)"><path class="outline" fill="#A5ABB6" stroke="none" d="M 24.018736134675446,6.953439040707552 L 24.277555179777966,5.987513214418485 A 181.63744181849276 181.63744181849276 0 0 0 59.49198175534389,11.7931708001191 L 59.42703477881386,12.791059516479606 A 182.63744181849276 182.63744181849276 0 0 1 24.018736134675446,6.953439040707552 Z M 78.80557428385879,13.021909537254317 L 78.7644173897252,12.02275684118365 A 181.63744181849276 181.63744181849276 0 0 0 114.10715277965626,7.057622985421535 L 113.3999466894658,4.142171125761094 L 121.02774146722903,5.893384084920528 L 115.05009423324354,10.944892131635456 L 114.34288814305309,8.029440271975014 A 182.63744181849276 182.63744181849276 0 0 1 78.80557428385879,13.021909537254317"/><text text-anchor="middle" pointer-events="none" font-size="8px" fill="#000000" x="69.11919630533993" y="15.66373663115391" transform="rotate(180 69.11919630533993 12.66373663115391)" font-family="sans-serif">trek</text></g><g class="relationship" transform="translate(6.731968886496248 57.04330905034565) rotate(425.0210994122924)"><path class="outline" fill="#A5ABB6" stroke="none" d="M 24.018736134675446,6.953439040707552 L 24.277555179777966,5.987513214418485 A 116.34460065281802 116.34460065281802 0 0 0 43.01158533854588,9.394146499459637 L 42.91378820639548,10.389352870491877 A 117.34460065281802 117.34460065281802 0 0 1 24.018736134675446,6.953439040707552 Z M 62.30807379297684,10.684393559004619 L 62.24059458962747,9.686672878094711 A 116.34460065281802 116.34460065281802 0 0 0 81.0695802237836,6.851476885377785 L 80.38162840348838,3.931421698749888 L 87.99770096263124,5.732931835793569 L 81.98684931751058,10.744883800881647 L 81.29889749721535,7.82482861425375 A 117.34460065281802 117.34460065281802 0 0 1 62.30807379297684,10.684393559004619"/><text text-anchor="middle" pointer-events="none" font-size="8px" fill="#000000" x="52.612429945082916" y="13.438341126683198" font-family="sans-serif">trek</text></g><g class="relationship" transform="translate(54.16781565646088 158.86769231361723) rotate(364.9078314138765)"><path class="outline" fill="#A5ABB6" stroke="none" d="M 24.018736134675446,-6.953439040707552 L 24.277555179777966,-5.987513214418485 A 115.02120161140516 115.02120161140516 0 0 1 42.68023068760125,-9.343713932381391 L 42.58140541103887,-10.338818733250307 A 116.02120161140516 116.02120161140516 0 0 0 24.018736134675446,-6.953439040707552 Z M 61.9761022751321,-10.63551973659608 L 61.90776244225998,-9.637857635861053 A 115.02120161140516 115.02120161140516 0 0 1 80.40448901225267,-6.846145741624814 L 79.71703515429577,-3.925973282132024 L 87.33280039406199,-5.728782149640844 L 81.3210941561952,-10.739709020948535 L 80.6336402982383,-7.819536561455744 A 116.02120161140516 116.02120161140516 0 0 0 61.9761022751321,-10.63551973659608"/><text text-anchor="middle" pointer-events="none" font-size="8px" fill="#000000" x="52.28019062004579" y="-7.393250261639281" font-family="sans-serif">trek</text></g><g class="relationship" transform="translate(103.78531539256447 -51.12079186200895) rotate(425.4532991355389)"><path class="outline" fill="#A5ABB6" stroke="none" d="M 25 0.5 L 30.990602980596663 0.5 L 30.990602980596663 -0.5 L 25 -0.5 Z M 50.32654048059666 0.5 L 56.317143461193325 0.5 L 56.317143461193325 3.5 L 63.317143461193325 0 L 56.317143461193325 -3.5 L 56.317143461193325 -0.5 L 50.32654048059666 -0.5 Z"/><text text-anchor="middle" pointer-events="none" font-size="8px" fill="#000000" x="40.65857173059666" y="3" font-family="sans-serif">trek</text></g><g class="relationship" transform="translate(6.731968886496248 57.04330905034565) rotate(473.52757529684715)"><path class="outline" fill="#A5ABB6" stroke="none" d="M 24.018736134675446,-6.953439040707552 L 24.277555179777966,-5.987513214418485 A 144.89347563479902 144.89347563479902 0 0 1 36.78515079810465,-8.752708262098992 L 36.61265445016657,-9.737718419380627 A 145.89347563479902 145.89347563479902 0 0 0 24.018736134675446,-6.953439040707552 Z M 83.03485473089535,-10.367866901875175 L 82.88915864371087,-9.378537507699946 A 144.89347563479902 144.89347563479902 0 0 1 95.46720307480128,-6.953862252574551 L 94.76968808852507,-4.03607664634504 L 102.39162198704949,-5.812624885635001 L 96.39722305650287,-10.844243060880565 L 95.69970807022666,-7.926457454651054 A 145.89347563479902 145.89347563479902 0 0 0 83.03485473089535,-10.367866901875175"/><text text-anchor="middle" pointer-events="none" font-size="8px" fill="#000000" x="59.80531455801098" y="-8.411245321558084" transform="rotate(180 59.80531455801098 -11.411245321558084)" font-family="sans-serif">twowheeler</text></g><g class="relationship" transform="translate(-43.84804846279871 173.21645355411863) rotate(351.6715017843293)"><path class="outline" fill="#A5ABB6" stroke="none" d="M 21.40063509461097,12.933012701892217 L 21.90063509461097,12.06698729810778 A 51.23146129269523 51.23146129269523 0 0 0 23.750718373302306,13.08488379575148 L 23.286830622143334,13.970777781691488 A 52.23146129269523 52.23146129269523 0 0 1 21.40063509461097,12.933012701892217 Z M 68.61448715570106,15.47993541737985 L 68.2105520389615,14.565147780020986 A 51.23146129269523 51.23146129269523 0 0 0 70.1242436352602,13.672563950756668 L 68.80037677744376,10.980468755044743 L 76.6264435682241,11.032223815136971 L 71.88939944568212,17.262024211705903 L 70.56553258786568,14.569929015993978 A 52.23146129269523 52.23146129269523 0 0 1 68.61448715570106,15.47993541737985"/><text text-anchor="middle" pointer-events="none" font-size="8px" fill="#000000" x="45.794951041496255" y="22.402052831128024" font-family="sans-serif">twowheeler</text></g><g class="relationship" transform="translate(6.731968886496248 57.04330905034565) rotate(473.52757529684715)"><path class="outline" fill="#A5ABB6" stroke="none" d="M 24.018736134675446,6.953439040707552 L 24.277555179777966,5.987513214418485 A 144.89347563479902 144.89347563479902 0 0 0 50.18971167345375,10.460431403566503 L 50.10972853783681,11.457227620461879 A 145.89347563479902 145.89347563479902 0 0 1 24.018736134675446,6.953439040707552 Z M 69.49608006780151,11.720383608843207 L 69.44318302186399,10.72178363761796 A 144.89347563479902 144.89347563479902 0 0 0 95.46720307480128,6.953862252574551 L 94.76968808852507,4.03607664634504 L 102.39162198704949,5.812624885635001 L 96.39722305650287,10.844243060880565 L 95.69970807022666,7.926457454651054 A 145.89347563479902 145.89347563479902 0 0 1 69.49608006780151,11.720383608843207"/><text text-anchor="middle" pointer-events="none" font-size="8px" fill="#000000" x="59.805314558011034" y="14.411245321558084" transform="rotate(180 59.805314558011034 11.411245321558084)" font-family="sans-serif">trek</text></g><g class="relationship" transform="translate(-43.84804846279871 173.21645355411863) rotate(351.6715017843293)"><path class="outline" fill="#A5ABB6" stroke="none" d="M 25 0.5 L 35.02442572457841 0.5 L 35.02442572457841 -0.5 L 25 -0.5 Z M 57.03614447457841 0.5 L 67.06057019915681 0.5 L 67.06057019915681 3.5 L 74.06057019915681 0 L 67.06057019915681 -3.5 L 67.06057019915681 -0.5 L 57.03614447457841 -0.5 Z"/><text text-anchor="middle" pointer-events="none" font-size="8px" fill="#000000" x="46.03028509957841" y="3" font-family="sans-serif">road</text></g><g class="relationship" transform="translate(-43.84804846279871 173.21645355411863) rotate(351.6715017843293)"><path class="outline" fill="#A5ABB6" stroke="none" d="M 21.40063509461097,-12.933012701892217 L 21.90063509461097,-12.06698729810778 A 51.23146129269523 51.23146129269523 0 0 1 36.32765803633715,-17.693994531303616 L 36.10926278813803,-18.669854928883133 A 52.23146129269523 52.23146129269523 0 0 0 21.40063509461097,-12.933012701892217 Z M 55.50789176508061,-19.315720858897947 L 55.354889612233706,-18.327495003526714 A 51.23146129269523 51.23146129269523 0 0 1 70.1242436352602,-13.672563950756668 L 68.80037677744376,-10.980468755044743 L 76.6264435682241,-11.032223815136971 L 71.88939944568212,-17.262024211705903 L 70.56553258786568,-14.569929015993978 A 52.23146129269523 52.23146129269523 0 0 0 55.50789176508061,-19.315720858897947"/><text text-anchor="middle" pointer-events="none" font-size="8px" fill="#000000" x="45.79495104149623" y="-16.402052831128024" font-family="sans-serif">trek</text></g><g class="relationship" transform="translate(-43.84804846279871 173.21645355411863) rotate(394.16876172054435)"><path class="outline" fill="#A5ABB6" stroke="none" d="M 25 0.5 L 50.98354424304213 0.5 L 50.98354424304213 -0.5 L 25 -0.5 Z M 70.31948174304213 0.5 L 96.30302598608426 0.5 L 96.30302598608426 3.5 L 103.30302598608426 0 L 96.30302598608426 -3.5 L 96.30302598608426 -0.5 L 70.31948174304213 -0.5 Z"/><text text-anchor="middle" pointer-events="none" font-size="8px" fill="#000000" x="60.65151299304213" y="3" font-family="sans-serif">trek</text></g><g class="relationship" transform="translate(62.3081951455049 245.27558496825873) rotate(323.3025844876745)"><path class="outline" fill="#A5ABB6" stroke="none" d="M 25 0.5 L 51.13574802778291 0.5 L 51.13574802778291 -0.5 L 25 -0.5 Z M 70.47168552778291 0.5 L 96.60743355556582 0.5 L 96.60743355556582 3.5 L 103.60743355556582 0 L 96.60743355556582 -3.5 L 96.60743355556582 -0.5 L 70.47168552778291 -0.5 Z"/><text text-anchor="middle" pointer-events="none" font-size="8px" fill="#000000" x="60.80371677778291" y="3" font-family="sans-serif">trek</text></g></g><g class="layer nodes"><g class="node" transform="translate(19.156048537533618,-36.039807460317775)"><circle class="outline" cx="0" cy="0" r="25" fill="#F16667" stroke="#eb2728" stroke-width="2px"/><text text-anchor="middle" pointer-events="none" font-family="sans-serif" dy="1.5625" font-size="25" fill="#FFFFFF"/><text text-anchor="middle" pointer-events="none" x="0" y="5" font-size="10px" fill="#FFFFFF" font-family="sans-serif"> Darjeeling</text></g><g class="node" transform="translate(165.4259698776813,168.42119992723846)"><circle class="outline" cx="0" cy="0" r="25" fill="#D9C8AE" stroke="#c0a378" stroke-width="2px"/><text text-anchor="middle" pointer-events="none" font-family="sans-serif" dy="1.5625" font-size="25" fill="#2A2C34"/><text text-anchor="middle" pointer-events="none" x="0" y="5" font-size="10px" fill="#2A2C34" font-family="sans-serif"> Sandak…</text></g><g class="node" transform="translate(140.47533018368043,29.214509492829414)"><circle class="outline" cx="0" cy="0" r="25" fill="#8DCC93" stroke="#5db665" stroke-width="2px"/><text text-anchor="middle" pointer-events="none" font-family="sans-serif" dy="1.5625" font-size="25" fill="#2A2C34"/><text text-anchor="middle" pointer-events="none" x="0" y="5" font-size="10px" fill="#2A2C34" font-family="sans-serif"> Tumbling</text></g><g class="node" transform="translate(274.81442331850315,73.10238252566462)"><circle class="outline" cx="0" cy="0" r="25" fill="#8DCC93" stroke="#5db665" stroke-width="2px"/><text text-anchor="middle" pointer-events="none" font-family="sans-serif" dy="1.5625" font-size="25" fill="#2A2C34"/><text text-anchor="middle" pointer-events="none" x="0" y="5" font-size="10px" fill="#2A2C34" font-family="sans-serif"> Gairibus</text></g><g class="node" transform="translate(200.33717942441132,31.121283956653567)"><circle class="outline" cx="0" cy="0" r="25" fill="#8DCC93" stroke="#5db665" stroke-width="2px"/><text text-anchor="middle" pointer-events="none" font-family="sans-serif" dy="1.5625" font-size="25" fill="#2A2C34"/><text text-anchor="middle" pointer-events="none" x="0" y="5" font-size="10px" fill="#2A2C34" font-family="sans-serif"> BhikeBh…</text></g><g class="node" transform="translate(103.78531539256447,-51.12079186200895)"><circle class="outline" cx="0" cy="0" r="25" fill="#F16667" stroke="#eb2728" stroke-width="2px"/><text text-anchor="middle" pointer-events="none" font-family="sans-serif" dy="1.5625" font-size="25" fill="#FFFFFF"/><text text-anchor="middle" pointer-events="none" x="0" y="5" font-size="10px" fill="#FFFFFF" font-family="sans-serif"> Rimbik</text></g><g class="node" transform="translate(6.731968886496248,57.04330905034565)"><circle class="outline" cx="0" cy="0" r="25" fill="#8DCC93" stroke="#5db665" stroke-width="2px"/><text text-anchor="middle" pointer-events="none" font-family="sans-serif" dy="1.5625" font-size="25" fill="#2A2C34"/><text text-anchor="middle" pointer-events="none" x="0" y="5" font-size="10px" fill="#2A2C34" font-family="sans-serif"> Sirikhola</text></g><g class="node" transform="translate(54.16781565646088,158.86769231361723)"><circle class="outline" cx="0" cy="0" r="25" fill="#8DCC93" stroke="#5db665" stroke-width="2px"/><text text-anchor="middle" pointer-events="none" font-family="sans-serif" dy="1.5625" font-size="25" fill="#2A2C34"/><text text-anchor="middle" pointer-events="none" x="0" y="5" font-size="10px" fill="#2A2C34" font-family="sans-serif"> Gurdum</text></g><g class="node" transform="translate(-43.84804846279871,173.21645355411863)"><circle class="outline" cx="0" cy="0" r="25" fill="#8DCC93" stroke="#5db665" stroke-width="2px"/><text text-anchor="middle" pointer-events="none" font-family="sans-serif" dy="1.5625" font-size="25" fill="#2A2C34"/><text text-anchor="middle" pointer-events="none" x="0" y="5" font-size="10px" fill="#2A2C34" font-family="sans-serif"> Rammam</text></g><g class="node" transform="translate(62.3081951455049,245.27558496825873)"><circle class="outline" cx="0" cy="0" r="25" fill="#D9C8AE" stroke="#c0a378" stroke-width="2px"/><text text-anchor="middle" pointer-events="none" font-family="sans-serif" dy="1.5625" font-size="25" fill="#2A2C34"/><text text-anchor="middle" pointer-events="none" x="0" y="5" font-size="10px" fill="#2A2C34" font-family="sans-serif"> Sabargr…</text></g></g></svg>